<svg version="1.1" xmlns="http://www.w3.org/2000/svg" viewBox="0 0 597.01367125 388.3203125" width="597.01367125" height="388.3203125" class="excalidraw-svg">
  <!-- svg-source:excalidraw -->
  
  <defs>
    <style class="style-fonts">
      
    </style>
    
  </defs>
  <rect x="0" y="0" width="597.01367125" height="388.3203125" fill="#ffffff"/><g stroke-linecap="round" transform="translate(113.08984299999997 152.62109375) rotate(0 40.53515625 40.53515625)"><path d="M50.67 1.76 C57.51 3.2, 65.01 8, 69.97 13.52 C74.94 19.04, 79.19 27.75, 80.45 34.88 C81.71 42.01, 80.61 49.71, 77.55 56.3 C74.49 62.89, 68.06 70.37, 62.07 74.42 C56.08 78.47, 48.82 80.51, 41.62 80.58 C34.42 80.65, 25.29 78.78, 18.88 74.84 C12.46 70.89, 6.31 63.41, 3.15 56.89 C-0.02 50.37, -1.08 42.85, -0.12 35.71 C0.84 28.57, 4.25 19.6, 8.9 14.06 C13.56 8.52, 20.28 4.4, 27.82 2.48 C35.36 0.56, 48.98 2.07, 54.12 2.56 C59.27 3.05, 58.73 4.93, 58.7 5.43 M29.4 0.69 C36.11 -1.84, 45.22 -1.94, 52.38 0.5 C59.54 2.94, 67.87 9.64, 72.37 15.31 C76.86 20.98, 78.69 27.25, 79.36 34.52 C80.03 41.8, 79.15 52.12, 76.36 58.96 C73.57 65.79, 68.75 72, 62.64 75.54 C56.53 79.08, 46.95 80.59, 39.7 80.21 C32.45 79.83, 25.3 77.21, 19.15 73.27 C13.01 69.33, 5.69 63.38, 2.82 56.58 C-0.05 49.79, 0.9 39.65, 1.95 32.5 C2.99 25.35, 4.21 18.69, 9.09 13.69 C13.98 8.69, 27.83 4.67, 31.25 2.52 C34.67 0.37, 29.77 0.1, 29.61 0.78" stroke="#1e1e1e" stroke-width="2" fill="none"/></g><g stroke-linecap="round" transform="translate(253.21093674999997 139.6093755) rotate(0 13.01171875 13.01171875)"><path d="M14.5 -0.25 C17.17 -0.07, 20.48 2.04, 22.43 4.26 C24.38 6.48, 26.03 10.29, 26.17 13.06 C26.31 15.83, 24.95 18.82, 23.26 20.87 C21.57 22.92, 18.72 24.7, 16.01 25.38 C13.3 26.06, 9.57 26.26, 6.98 24.94 C4.39 23.63, 1.52 20.13, 0.47 17.5 C-0.58 14.88, -0.34 11.81, 0.68 9.16 C1.71 6.52, 4.13 3.12, 6.6 1.61 C9.07 0.11, 13.95 0.28, 15.51 0.13 C17.07 -0.01, 15.98 0.55, 15.97 0.75 M14.86 0.05 C17.4 0.21, 20.75 1.84, 22.58 3.82 C24.4 5.81, 25.66 9.14, 25.8 11.97 C25.95 14.79, 25.27 18.44, 23.46 20.76 C21.65 23.07, 17.72 25.26, 14.94 25.86 C12.15 26.46, 9.2 25.76, 6.77 24.38 C4.34 22.99, 1.43 20.09, 0.33 17.55 C-0.77 15.02, -0.86 11.88, 0.19 9.18 C1.24 6.47, 4.09 2.84, 6.63 1.32 C9.17 -0.19, 13.95 0.35, 15.42 0.09 C16.88 -0.16, 15.42 -0.49, 15.43 -0.19" stroke="none" stroke-width="0" fill="#1e1e1e"/><path d="M12.07 0.37 C14.64 0.1, 18.22 1, 20.53 2.58 C22.85 4.15, 25.28 7, 25.98 9.8 C26.69 12.61, 26.02 16.92, 24.76 19.39 C23.5 21.85, 20.96 23.59, 18.42 24.6 C15.88 25.62, 12.2 26.25, 9.53 25.46 C6.87 24.68, 3.96 22.19, 2.42 19.9 C0.89 17.61, 0.07 14.49, 0.32 11.72 C0.57 8.95, 1.89 5.16, 3.93 3.29 C5.97 1.41, 10.94 0.95, 12.53 0.48 C14.12 0, 13.45 0.35, 13.46 0.42 M10.86 -0.06 C13.51 -0.85, 17.68 -0.29, 20.1 1.22 C22.51 2.72, 24.44 6.2, 25.37 8.98 C26.3 11.75, 26.64 15.23, 25.67 17.87 C24.7 20.5, 22.01 23.59, 19.55 24.81 C17.09 26.03, 13.66 25.92, 10.9 25.2 C8.14 24.48, 4.91 22.57, 2.98 20.49 C1.04 18.42, -0.75 15.54, -0.7 12.76 C-0.65 9.98, 1.25 6.02, 3.27 3.83 C5.28 1.65, 10.09 0.34, 11.38 -0.35 C12.67 -1.05, 11.03 -0.73, 11.02 -0.33" stroke="#1e1e1e" stroke-width="2" fill="none"/></g><g stroke-linecap="round" transform="translate(253.21093724999997 220.6796875) rotate(0 13.01171875 13.01171875)"><path d="M11.85 0.03 C14.42 -0.42, 18.26 0.72, 20.5 2.31 C22.73 3.91, 24.61 6.85, 25.25 9.59 C25.89 12.34, 25.5 16.29, 24.33 18.75 C23.16 21.22, 20.66 23.24, 18.21 24.36 C15.76 25.49, 12.29 26.23, 9.62 25.5 C6.96 24.77, 3.86 22.34, 2.24 20 C0.61 17.66, -0.43 14.13, -0.13 11.47 C0.18 8.81, 1.97 5.9, 4.04 4.05 C6.12 2.2, 10.75 0.93, 12.32 0.36 C13.89 -0.21, 13.45 0.42, 13.46 0.66 M15.32 -0.48 C17.8 -0.24, 20.28 1.65, 22.1 3.75 C23.91 5.85, 26.05 9.21, 26.19 12.13 C26.33 15.05, 24.61 19.1, 22.95 21.26 C21.29 23.43, 18.87 24.57, 16.24 25.12 C13.6 25.67, 9.66 25.74, 7.13 24.56 C4.59 23.38, 2.04 20.63, 1.04 18.03 C0.03 15.44, 0.16 11.73, 1.12 8.97 C2.08 6.21, 4.48 2.96, 6.8 1.48 C9.12 0, 13.66 0.35, 15.04 0.09 C16.42 -0.17, 15.07 -0.3, 15.07 -0.11" stroke="none" stroke-width="0" fill="#1e1e1e"/><path d="M10.88 0.17 C13.47 -0.48, 16.79 0.47, 19.09 1.83 C21.39 3.18, 23.62 5.68, 24.69 8.29 C25.75 10.9, 26.27 14.83, 25.47 17.5 C24.67 20.16, 22.27 22.84, 19.91 24.28 C17.56 25.72, 14.19 26.57, 11.35 26.14 C8.51 25.7, 4.83 23.89, 2.87 21.68 C0.9 19.47, -0.45 15.66, -0.46 12.87 C-0.46 10.08, 1.03 7.01, 2.84 4.94 C4.64 2.87, 9.03 1.21, 10.37 0.45 C11.7 -0.31, 10.82 0.2, 10.84 0.38 M16.14 -0.42 C18.71 -0.1, 21.91 2.15, 23.45 4.38 C25 6.62, 25.59 10.07, 25.44 13 C25.28 15.92, 24.2 19.77, 22.53 21.93 C20.87 24.1, 18.25 25.52, 15.46 25.96 C12.67 26.41, 8.36 26.06, 5.8 24.61 C3.23 23.16, 0.76 20.12, 0.07 17.27 C-0.62 14.41, 0.6 10.09, 1.67 7.47 C2.73 4.86, 4.03 2.66, 6.43 1.56 C8.84 0.47, 14.63 1.05, 16.08 0.9 C17.54 0.76, 15.3 0.55, 15.17 0.69" stroke="#1e1e1e" stroke-width="2" fill="none"/></g><g stroke-linecap="round" transform="translate(402.853514875 153.62499987500001) rotate(0 40.53515625 40.53515625)"><path d="M23.67 2.92 C29.85 -0.34, 39.13 -0.16, 46.33 1.13 C53.53 2.42, 61.27 5.86, 66.87 10.64 C72.48 15.41, 77.73 22.82, 79.96 29.78 C82.2 36.74, 82.28 45.44, 80.27 52.38 C78.27 59.33, 73.52 66.64, 67.95 71.45 C62.37 76.26, 54.24 80.33, 46.85 81.25 C39.45 82.16, 30.44 79.92, 23.56 76.93 C16.67 73.93, 9.62 69.42, 5.54 63.28 C1.46 57.15, -0.97 47.59, -0.92 40.13 C-0.88 32.67, 1.4 24.59, 5.83 18.55 C10.26 12.51, 22.05 6.5, 25.66 3.89 C29.27 1.27, 27.39 2.37, 27.51 2.87 M52.15 1.86 C58.91 3.32, 66.95 9.86, 71.63 15.35 C76.31 20.84, 79.25 27.9, 80.24 34.8 C81.22 41.7, 80.51 49.86, 77.54 56.77 C74.56 63.67, 68.45 72.32, 62.39 76.24 C56.34 80.16, 48.77 80.64, 41.22 80.29 C33.67 79.94, 23.6 77.82, 17.08 74.13 C10.56 70.44, 4.96 64.91, 2.09 58.16 C-0.78 51.41, -1.39 41.12, -0.14 33.65 C1.12 26.18, 4.84 18.69, 9.62 13.35 C14.4 8.01, 21.41 3.55, 28.53 1.59 C35.64 -0.37, 48.48 1.39, 52.31 1.58 C56.13 1.78, 51.47 2.26, 51.48 2.76" stroke="#1e1e1e" stroke-width="2" fill="none"/></g><g stroke-linecap="round" transform="translate(321.767577125 140.613281375) rotate(0 13.011719 13.011719)"><path d="M13.86 0.11 C16.5 0.19, 19.9 1.67, 21.89 3.67 C23.89 5.67, 25.5 9.24, 25.82 12.11 C26.14 14.99, 25.32 18.72, 23.81 20.94 C22.31 23.16, 19.59 24.85, 16.79 25.42 C13.99 25.98, 9.54 25.57, 7.03 24.35 C4.51 23.14, 2.85 20.62, 1.68 18.11 C0.51 15.59, -0.73 11.93, 0 9.27 C0.72 6.61, 3.48 3.74, 6.02 2.17 C8.56 0.61, 13.62 0.12, 15.24 -0.11 C16.86 -0.33, 15.87 0.65, 15.74 0.83 M16.26 -0.4 C18.86 0.01, 21.06 2.42, 22.6 4.71 C24.14 7.01, 25.58 10.56, 25.51 13.36 C25.43 16.15, 23.96 19.34, 22.16 21.47 C20.36 23.59, 17.35 25.61, 14.71 26.08 C12.07 26.56, 8.64 25.76, 6.32 24.33 C4.01 22.9, 1.78 20.25, 0.81 17.51 C-0.17 14.76, -0.44 10.49, 0.48 7.86 C1.4 5.23, 3.68 2.99, 6.33 1.73 C8.97 0.47, 14.72 0.36, 16.36 0.29 C18 0.21, 16.31 0.99, 16.19 1.28" stroke="none" stroke-width="0" fill="#1e1e1e"/><path d="M14.23 0.31 C16.81 0.27, 20.14 1.45, 22.03 3.42 C23.91 5.38, 25.32 9.31, 25.54 12.1 C25.77 14.88, 24.9 17.89, 23.36 20.14 C21.82 22.38, 18.84 24.68, 16.29 25.54 C13.73 26.41, 10.46 26.5, 8.04 25.33 C5.62 24.16, 3.07 21.09, 1.77 18.53 C0.47 15.96, -0.39 12.58, 0.26 9.93 C0.9 7.28, 3.14 4.28, 5.63 2.63 C8.12 0.98, 13.52 0.38, 15.2 0.04 C16.87 -0.3, 15.73 0.39, 15.69 0.59 M12.27 0.71 C14.97 0.38, 19.1 0.59, 21.23 2.1 C23.36 3.6, 24.59 6.87, 25.06 9.74 C25.52 12.61, 25.19 16.85, 24.01 19.32 C22.83 21.79, 20.47 23.56, 17.99 24.57 C15.51 25.58, 11.84 26.08, 9.13 25.37 C6.42 24.66, 3.23 22.63, 1.71 20.32 C0.19 18.02, -0.29 14.31, 0.03 11.55 C0.35 8.79, 1.53 5.77, 3.64 3.76 C5.75 1.75, 11.2 0.13, 12.69 -0.51 C14.17 -1.14, 12.63 -0.26, 12.54 -0.06" stroke="#1e1e1e" stroke-width="2" fill="none"/></g><g stroke-linecap="round" transform="translate(321.767576875 221.68359337500002) rotate(0 13.011719 13.011719)"><path d="M11.24 -0.07 C13.88 -0.5, 17.66 0.76, 20.06 2.4 C22.46 4.05, 24.76 7.19, 25.64 9.8 C26.52 12.41, 26.57 15.65, 25.35 18.06 C24.13 20.46, 20.8 23.02, 18.32 24.22 C15.83 25.42, 13.12 25.9, 10.42 25.26 C7.71 24.62, 3.74 22.57, 2.09 20.36 C0.44 18.16, 0.17 14.78, 0.5 12.02 C0.82 9.26, 2.06 5.74, 4.03 3.81 C6 1.87, 10.96 1.05, 12.32 0.39 C13.69 -0.27, 12.2 -0.22, 12.24 -0.13 M10.73 -0.25 C13.17 -0.65, 17.23 0.39, 19.6 1.92 C21.98 3.45, 24.1 6.18, 24.99 8.91 C25.88 11.64, 25.91 15.61, 24.94 18.29 C23.98 20.96, 21.62 23.61, 19.18 24.94 C16.73 26.26, 13.11 26.96, 10.26 26.24 C7.42 25.52, 3.93 22.91, 2.12 20.63 C0.3 18.35, -0.95 15.31, -0.63 12.56 C-0.3 9.81, 1.98 6.07, 4.07 4.11 C6.16 2.16, 10.64 1.37, 11.9 0.82 C13.15 0.27, 11.68 0.77, 11.61 0.8" stroke="none" stroke-width="0" fill="#1e1e1e"/><path d="M13.59 -0.19 C16.12 -0.21, 19.42 2.01, 21.4 3.91 C23.38 5.8, 25.08 8.51, 25.45 11.2 C25.82 13.88, 25.01 17.6, 23.64 20.04 C22.26 22.48, 19.73 25.04, 17.21 25.84 C14.68 26.63, 11.11 25.94, 8.46 24.81 C5.82 23.68, 2.66 21.46, 1.35 19.05 C0.04 16.63, -0.08 13.06, 0.61 10.32 C1.3 7.58, 3.17 4.3, 5.49 2.61 C7.8 0.91, 12.8 0.52, 14.49 0.14 C16.18 -0.25, 15.68 0.08, 15.63 0.3 M11.38 -0.2 C13.84 -0.95, 16.79 0.07, 18.99 1.64 C21.19 3.21, 23.58 6.63, 24.57 9.22 C25.55 11.81, 25.81 14.69, 24.91 17.18 C24.01 19.68, 21.63 22.72, 19.17 24.16 C16.72 25.61, 12.88 26.34, 10.18 25.85 C7.48 25.37, 4.72 23.37, 2.96 21.24 C1.21 19.1, -0.45 15.92, -0.34 13.06 C-0.22 10.2, 1.73 6.27, 3.66 4.07 C5.59 1.86, 10.04 0.54, 11.23 -0.16 C12.42 -0.87, 10.87 -0.55, 10.8 -0.17" stroke="#1e1e1e" stroke-width="2" fill="none"/></g><g stroke-linecap="round" transform="translate(40.13281174999997 141.6132815) rotate(0 12.01171875 12.01171875)"><path d="M10.05 0.61 C12.44 0.01, 15.92 0.41, 18.12 1.69 C20.32 2.97, 22.33 5.87, 23.26 8.28 C24.18 10.68, 24.61 13.72, 23.66 16.12 C22.72 18.51, 20.01 21.34, 17.58 22.64 C15.15 23.95, 11.55 24.51, 9.08 23.93 C6.62 23.34, 4.32 21.14, 2.81 19.13 C1.29 17.12, -0.01 14.33, -0.01 11.89 C0 9.45, 1.13 6.44, 2.85 4.5 C4.58 2.57, 8.94 0.9, 10.35 0.27 C11.76 -0.35, 11.3 0.62, 11.32 0.75 M12.75 0.68 C15.23 0.59, 18.7 0.97, 20.53 2.67 C22.35 4.38, 23.35 8.27, 23.68 10.92 C24 13.56, 23.83 16.36, 22.48 18.55 C21.12 20.74, 18.1 23.17, 15.54 24.04 C12.98 24.92, 9.48 24.88, 7.11 23.79 C4.74 22.7, 2.41 19.89, 1.32 17.49 C0.23 15.09, 0.05 11.91, 0.57 9.39 C1.09 6.87, 2.44 3.85, 4.43 2.37 C6.43 0.88, 11.25 0.9, 12.55 0.46 C13.85 0.03, 12.17 -0.25, 12.24 -0.24" stroke="none" stroke-width="0" fill="#1e1e1e"/><path d="M10.9 -0.12 C13.38 -0.4, 16.67 0.95, 18.85 2.42 C21.03 3.9, 23.31 6.23, 23.99 8.71 C24.68 11.19, 24.13 14.91, 22.97 17.33 C21.81 19.74, 19.4 22.17, 17.02 23.21 C14.63 24.25, 11.1 24.22, 8.64 23.57 C6.18 22.91, 3.65 21.34, 2.25 19.26 C0.85 17.18, 0.05 13.65, 0.24 11.1 C0.43 8.54, 1.5 5.78, 3.38 3.92 C5.26 2.07, 10.17 0.54, 11.51 -0.02 C12.85 -0.58, 11.39 0.38, 11.41 0.58 M14.07 -0.23 C16.28 -0.21, 18.41 1.6, 20.17 3.48 C21.92 5.36, 24.44 8.47, 24.61 11.03 C24.78 13.59, 22.82 16.73, 21.19 18.82 C19.56 20.9, 17.33 22.97, 14.82 23.55 C12.31 24.13, 8.49 23.51, 6.15 22.29 C3.8 21.06, 1.77 18.47, 0.75 16.2 C-0.27 13.93, -0.87 10.98, 0.04 8.65 C0.96 6.32, 4 3.71, 6.23 2.21 C8.46 0.7, 12.2 -0.04, 13.43 -0.38 C14.66 -0.72, 13.51 0, 13.62 0.18" stroke="#1e1e1e" stroke-width="2" fill="none"/></g><g stroke-linecap="round" transform="translate(40.13281299999997 222.68359425) rotate(0 12.011718000000002 12.011718000000002)"><path d="M11.05 0.14 C13.46 -0.25, 17.22 0.25, 19.28 1.71 C21.33 3.16, 22.73 6.35, 23.36 8.87 C23.99 11.39, 24.07 14.41, 23.06 16.81 C22.05 19.21, 19.62 22.2, 17.32 23.29 C15.03 24.37, 11.82 23.98, 9.28 23.31 C6.74 22.65, 3.58 21.33, 2.08 19.3 C0.58 17.27, 0.05 13.68, 0.27 11.13 C0.49 8.58, 1.56 5.76, 3.39 3.99 C5.22 2.21, 9.81 1.1, 11.24 0.48 C12.68 -0.15, 11.93 0.09, 12 0.21 M11.3 -0.26 C13.66 -0.57, 16.39 1.1, 18.32 2.54 C20.25 3.98, 22.08 6.07, 22.9 8.38 C23.71 10.68, 24.03 14.01, 23.2 16.38 C22.37 18.75, 20.29 21.42, 17.92 22.59 C15.54 23.77, 11.45 24.08, 8.95 23.43 C6.45 22.77, 4.37 20.6, 2.92 18.66 C1.47 16.71, 0.07 14.35, 0.24 11.76 C0.41 9.17, 2.07 5, 3.93 3.1 C5.79 1.2, 10.37 0.83, 11.42 0.37 C12.46 -0.08, 10.3 0.12, 10.2 0.36" stroke="none" stroke-width="0" fill="#1e1e1e"/><path d="M11.11 -0.11 C13.53 -0.42, 17.3 1.02, 19.39 2.59 C21.49 4.17, 23.02 6.86, 23.67 9.35 C24.31 11.85, 24.34 15.33, 23.27 17.56 C22.2 19.79, 19.74 21.8, 17.24 22.76 C14.74 23.71, 10.71 24.01, 8.25 23.29 C5.79 22.57, 3.86 20.58, 2.46 18.44 C1.06 16.3, -0.39 12.97, -0.17 10.44 C0.05 7.91, 1.84 5.04, 3.79 3.26 C5.75 1.48, 10.15 0.3, 11.56 -0.25 C12.98 -0.8, 12.3 -0.3, 12.29 -0.03 M14.22 0.38 C16.56 0.92, 19.91 3.34, 21.44 5.46 C22.97 7.59, 23.56 10.77, 23.42 13.15 C23.27 15.54, 22.28 17.86, 20.58 19.76 C18.88 21.67, 15.8 24.1, 13.22 24.61 C10.65 25.11, 7.28 24.35, 5.12 22.81 C2.95 21.28, 0.94 17.94, 0.21 15.37 C-0.53 12.8, -0.47 9.8, 0.71 7.37 C1.89 4.94, 4.99 1.96, 7.29 0.8 C9.6 -0.37, 13.42 0.39, 14.52 0.38 C15.63 0.38, 13.88 0.67, 13.93 0.77" stroke="#1e1e1e" stroke-width="2" fill="none"/></g><g stroke-linecap="round" transform="translate(139.61328024999997 75.21875) rotate(0 14.01171875 14.01171875)"><path d="M14.78 0.46 C17.66 0.38, 21.59 1.36, 23.76 3.37 C25.92 5.38, 27.36 9.47, 27.74 12.51 C28.13 15.55, 27.64 19.07, 26.05 21.61 C24.45 24.15, 21.09 26.8, 18.16 27.76 C15.22 28.73, 11.2 28.63, 8.43 27.4 C5.66 26.18, 2.87 23.17, 1.55 20.42 C0.23 17.68, -0.1 13.89, 0.53 10.95 C1.16 8.01, 2.91 4.58, 5.32 2.81 C7.73 1.04, 13.35 0.8, 14.98 0.33 C16.61 -0.13, 15.06 -0.09, 15.09 0.02 M12.79 -0.12 C15.54 -0.63, 18.84 0.34, 21.37 1.92 C23.91 3.49, 27.05 6.34, 28.02 9.35 C28.99 12.35, 28.37 17.19, 27.21 19.95 C26.05 22.7, 23.67 24.54, 21.08 25.89 C18.49 27.23, 14.79 28.57, 11.66 28.04 C8.53 27.5, 4.26 25.02, 2.29 22.7 C0.32 20.38, -0.4 17.14, -0.15 14.1 C0.1 11.06, 1.63 6.86, 3.79 4.45 C5.94 2.04, 11.5 0.43, 12.79 -0.35 C14.08 -1.13, 11.51 -0.57, 11.54 -0.2" stroke="none" stroke-width="0" fill="#1e1e1e"/><path d="M16.16 -0.1 C18.86 -0.01, 21.83 2.07, 23.87 4.27 C25.91 6.47, 28.24 10.1, 28.41 13.09 C28.58 16.08, 26.77 19.79, 24.9 22.2 C23.03 24.61, 20.11 26.9, 17.19 27.57 C14.26 28.23, 10.03 27.6, 7.33 26.19 C4.63 24.78, 2.13 21.81, 0.96 19.1 C-0.21 16.4, -0.69 12.75, 0.31 9.97 C1.3 7.19, 4.25 4.09, 6.93 2.41 C9.61 0.74, 14.7 0.22, 16.4 -0.1 C18.1 -0.41, 17.09 0.3, 17.14 0.52 M16.18 0.88 C18.99 1.39, 22.46 3.56, 24.38 5.72 C26.3 7.88, 27.68 10.95, 27.71 13.84 C27.73 16.73, 26.26 20.82, 24.51 23.06 C22.76 25.3, 20.14 26.76, 17.2 27.29 C14.25 27.82, 9.68 27.6, 6.83 26.23 C3.99 24.85, 1.07 21.96, 0.12 19.05 C-0.82 16.13, 0.04 11.55, 1.19 8.75 C2.33 5.95, 4.49 3.55, 6.98 2.25 C9.47 0.94, 14.67 1.18, 16.14 0.94 C17.61 0.7, 15.76 0.57, 15.79 0.8" stroke="#1e1e1e" stroke-width="2" fill="none"/></g><g stroke-linecap="round" transform="translate(139.61327999999997 265.38671850000003) rotate(0 14.011719 14.011719)"><path d="M11.25 0.48 C13.97 -0.24, 17.7 0.73, 20.26 2.01 C22.81 3.29, 25.46 5.4, 26.59 8.17 C27.71 10.94, 27.79 15.64, 27 18.61 C26.21 21.57, 24.29 24.43, 21.85 25.95 C19.4 27.47, 15.41 28.07, 12.33 27.75 C9.24 27.44, 5.3 26.23, 3.33 24.05 C1.36 21.88, 0.63 17.84, 0.51 14.72 C0.38 11.61, 0.76 7.81, 2.58 5.38 C4.4 2.96, 9.71 1.02, 11.42 0.17 C13.13 -0.67, 12.77 0, 12.83 0.31 M13.5 -0.07 C16.21 -0.71, 19.44 0.16, 21.75 1.96 C24.06 3.76, 26.55 7.78, 27.37 10.73 C28.2 13.68, 27.95 17.01, 26.7 19.68 C25.44 22.34, 22.56 25.41, 19.82 26.72 C17.07 28.03, 13.01 28.37, 10.23 27.56 C7.45 26.75, 4.81 24.18, 3.15 21.84 C1.49 19.5, 0.16 16.51, 0.26 13.52 C0.36 10.52, 1.69 6.09, 3.76 3.85 C5.84 1.61, 11.18 0.56, 12.69 0.08 C14.21 -0.39, 12.79 0.8, 12.84 1" stroke="none" stroke-width="0" fill="#1e1e1e"/><path d="M10.34 0.39 C13.09 -0.53, 17.61 -0.02, 20.44 1.24 C23.26 2.5, 26.11 5.16, 27.32 7.95 C28.52 10.74, 28.51 15.11, 27.68 17.99 C26.84 20.88, 24.86 23.59, 22.29 25.26 C19.73 26.94, 15.33 28.32, 12.28 28.03 C9.24 27.75, 6.03 25.66, 4.01 23.55 C1.99 21.44, 0.33 18.41, 0.15 15.39 C-0.02 12.37, 1.14 7.87, 2.95 5.41 C4.76 2.94, 9.51 1.4, 11.02 0.59 C12.53 -0.23, 11.92 0.26, 11.99 0.51 M12.68 0.34 C15.39 -0.14, 19.54 0.54, 21.99 2.2 C24.45 3.86, 26.56 7.41, 27.43 10.3 C28.29 13.19, 28.51 16.75, 27.19 19.55 C25.87 22.35, 22.42 25.85, 19.51 27.11 C16.61 28.38, 12.55 28.08, 9.77 27.15 C6.99 26.21, 4.33 23.93, 2.83 21.5 C1.33 19.08, 0.58 15.53, 0.78 12.61 C0.97 9.68, 1.88 6.09, 3.99 3.94 C6.09 1.79, 11.9 0.21, 13.4 -0.28 C14.89 -0.76, 12.96 0.82, 12.95 1.02" stroke="#1e1e1e" stroke-width="2" fill="none"/></g><g stroke-linecap="round" transform="translate(429.37695299999996 75.21875125) rotate(0 14.011718000000002 14.011718000000002)"><path d="M12.25 0.32 C15.08 -0.2, 18.97 0.49, 21.56 2.05 C24.16 3.62, 26.89 6.73, 27.83 9.7 C28.78 12.67, 28.39 17.11, 27.23 19.89 C26.08 22.68, 23.65 25.16, 20.9 26.39 C18.15 27.63, 13.74 27.91, 10.71 27.3 C7.68 26.69, 4.52 25.08, 2.73 22.72 C0.95 20.37, -0.15 16.2, 0 13.16 C0.15 10.12, 1.5 6.68, 3.65 4.5 C5.79 2.31, 11.12 0.77, 12.86 0.04 C14.6 -0.68, 14.05 -0.18, 14.11 0.13 M12.54 0.13 C15.51 -0.32, 20.02 0.91, 22.48 2.5 C24.94 4.08, 26.66 6.82, 27.3 9.64 C27.94 12.46, 27.56 16.65, 26.31 19.44 C25.06 22.22, 22.43 24.95, 19.78 26.34 C17.14 27.73, 13.36 28.42, 10.43 27.78 C7.5 27.14, 3.97 24.87, 2.19 22.5 C0.42 20.14, -0.54 16.65, -0.2 13.58 C0.14 10.51, 2.15 6.46, 4.24 4.09 C6.33 1.73, 10.88 0.07, 12.36 -0.61 C13.83 -1.3, 13.13 -0.43, 13.11 -0.02" stroke="none" stroke-width="0" fill="#1e1e1e"/><path d="M16.07 0.35 C18.98 0.55, 22.28 2.33, 24.33 4.46 C26.39 6.59, 28.17 10.15, 28.38 13.15 C28.6 16.15, 27.51 20.02, 25.63 22.47 C23.75 24.92, 20.09 27.23, 17.08 27.86 C14.08 28.5, 10.28 27.69, 7.61 26.28 C4.93 24.87, 2.14 22.2, 1.03 19.43 C-0.09 16.66, 0.08 12.47, 0.93 9.65 C1.77 6.84, 3.55 4.13, 6.1 2.52 C8.65 0.91, 14.28 0.34, 16.21 -0.03 C18.13 -0.39, 17.53 0.07, 17.65 0.32 M13.37 0.21 C16.37 -0.06, 21.16 1.64, 23.47 3.58 C25.78 5.52, 26.73 9.1, 27.26 11.84 C27.78 14.59, 27.96 17.56, 26.61 20.08 C25.26 22.59, 21.9 25.68, 19.15 26.91 C16.39 28.14, 12.97 28.28, 10.08 27.46 C7.2 26.65, 3.58 24.69, 1.85 22 C0.11 19.31, -0.71 14.28, -0.32 11.31 C0.06 8.35, 1.77 6.05, 4.16 4.21 C6.55 2.37, 12.43 0.97, 14.03 0.28 C15.63 -0.42, 13.92 -0.27, 13.76 0.04" stroke="#1e1e1e" stroke-width="2" fill="none"/></g><g stroke-linecap="round" transform="translate(429.37695199999996 265.38671825) rotate(0 14.011719 14.011719)"><path d="M13.51 0.31 C16.47 0.08, 20.86 1.77, 23.22 3.57 C25.57 5.36, 27.21 8.24, 27.67 11.08 C28.12 13.92, 27.32 17.97, 25.93 20.63 C24.54 23.29, 22.11 25.95, 19.35 27.05 C16.59 28.14, 12.25 28.17, 9.36 27.19 C6.48 26.21, 3.59 23.65, 2.05 21.17 C0.52 18.69, -0.26 15.22, 0.17 12.3 C0.59 9.37, 2.17 5.71, 4.61 3.62 C7.05 1.54, 13.13 0.35, 14.83 -0.21 C16.53 -0.77, 14.91 -0.01, 14.83 0.27 M16.61 -0.17 C19.37 0.24, 23.05 2.68, 24.91 5.11 C26.77 7.55, 27.83 11.46, 27.76 14.44 C27.69 17.42, 26.44 20.8, 24.48 23 C22.53 25.21, 18.95 27.15, 16.03 27.68 C13.11 28.2, 9.56 27.75, 6.96 26.14 C4.36 24.53, 1.52 20.86, 0.43 18.03 C-0.67 15.2, -0.74 12, 0.39 9.18 C1.52 6.36, 4.35 2.7, 7.2 1.12 C10.05 -0.47, 15.81 -0.34, 17.49 -0.33 C19.16 -0.31, 17.47 0.97, 17.27 1.21" stroke="none" stroke-width="0" fill="#1e1e1e"/><path d="M14.09 0.46 C16.95 0.27, 20.88 1.53, 23.2 3.42 C25.53 5.32, 27.61 8.89, 28.04 11.85 C28.48 14.81, 27.4 18.56, 25.82 21.18 C24.23 23.8, 21.38 26.64, 18.54 27.57 C15.7 28.5, 11.51 27.97, 8.76 26.76 C6.01 25.55, 3.5 22.87, 2.03 20.33 C0.57 17.78, -0.48 14.27, -0.02 11.49 C0.45 8.7, 2.31 5.51, 4.81 3.59 C7.3 1.68, 13.13 0.46, 14.96 0 C16.79 -0.45, 15.83 0.61, 15.8 0.87 M17.74 0.68 C20.36 1.24, 22.85 3.21, 24.53 5.65 C26.21 8.09, 27.86 12.38, 27.84 15.34 C27.83 18.29, 26.34 21.38, 24.44 23.39 C22.54 25.41, 19.54 27.14, 16.43 27.43 C13.33 27.73, 8.32 26.65, 5.81 25.14 C3.29 23.64, 2.08 21.18, 1.35 18.42 C0.61 15.65, 0.38 11.5, 1.39 8.57 C2.4 5.65, 4.66 2.12, 7.41 0.87 C10.17 -0.37, 16.3 1.2, 17.91 1.1 C19.53 1, 17.32 0.23, 17.09 0.26" stroke="#1e1e1e" stroke-width="2" fill="none"/></g><g stroke-linecap="round" transform="translate(528.56249875 141.61718725) rotate(0 12.007812999999999 12.007812999999999)"><path d="M14.46 -0.08 C16.78 0.37, 19.86 2.9, 21.45 4.98 C23.04 7.06, 24.1 9.89, 23.98 12.42 C23.87 14.95, 22.5 18.25, 20.74 20.17 C18.98 22.08, 15.88 23.63, 13.41 23.92 C10.94 24.22, 8.04 23.27, 5.92 21.96 C3.8 20.65, 1.55 18.5, 0.68 16.04 C-0.19 13.58, -0.25 9.64, 0.72 7.19 C1.68 4.74, 4.04 2.41, 6.45 1.35 C8.87 0.3, 13.67 0.98, 15.21 0.87 C16.75 0.76, 15.81 0.63, 15.7 0.69 M10.82 0.21 C13.22 -0.06, 16.36 0.9, 18.45 2.44 C20.55 3.99, 22.6 7.07, 23.39 9.49 C24.18 11.9, 24.28 14.82, 23.19 16.94 C22.1 19.07, 19.16 21.19, 16.86 22.23 C14.56 23.27, 11.92 23.71, 9.39 23.21 C6.86 22.71, 3.35 21.25, 1.68 19.23 C0.01 17.22, -1.03 13.84, -0.62 11.13 C-0.2 8.42, 2.32 4.8, 4.17 2.96 C6.01 1.12, 9.4 0.42, 10.43 0.08 C11.47 -0.26, 10.32 0.77, 10.38 0.91" stroke="none" stroke-width="0" fill="#1e1e1e"/><path d="M11.91 -0.19 C14.34 -0.4, 17.55 1.1, 19.58 2.73 C21.61 4.37, 23.69 7.03, 24.11 9.61 C24.54 12.19, 23.53 15.98, 22.13 18.21 C20.74 20.44, 18.08 22.19, 15.75 22.98 C13.43 23.76, 10.44 23.76, 8.17 22.92 C5.9 22.08, 3.49 20.1, 2.15 17.93 C0.81 15.76, -0.3 12.43, 0.12 9.88 C0.54 7.34, 2.58 4.22, 4.66 2.65 C6.75 1.08, 11.18 0.92, 12.64 0.47 C14.1 0.02, 13.38 -0.2, 13.41 -0.04 M9.89 0.49 C12.2 -0.06, 15.17 0.99, 17.28 2.04 C19.4 3.08, 21.65 4.39, 22.58 6.76 C23.51 9.13, 23.49 13.66, 22.87 16.26 C22.26 18.86, 20.91 21.12, 18.86 22.36 C16.81 23.59, 13.3 23.92, 10.58 23.68 C7.87 23.44, 4.21 22.78, 2.57 20.93 C0.93 19.09, 0.84 15.35, 0.75 12.61 C0.66 9.87, 0.7 6.54, 2.05 4.49 C3.4 2.44, 7.59 0.96, 8.86 0.29 C10.13 -0.38, 9.6 0.17, 9.68 0.47" stroke="#1e1e1e" stroke-width="2" fill="none"/></g><g stroke-linecap="round" transform="translate(528.562499 222.68749925) rotate(0 12.007812999999999 12.007812999999999)"><path d="M11.18 -0.07 C13.57 -0.38, 17.12 0.65, 19.21 2.27 C21.3 3.89, 23.14 7.12, 23.7 9.67 C24.26 12.21, 23.66 15.36, 22.57 17.56 C21.49 19.75, 19.58 21.85, 17.21 22.83 C14.84 23.81, 10.9 24.16, 8.36 23.46 C5.82 22.75, 3.28 20.75, 1.98 18.62 C0.67 16.49, 0.24 13.28, 0.53 10.67 C0.81 8.06, 1.88 4.74, 3.67 2.94 C5.46 1.13, 9.93 0.32, 11.25 -0.15 C12.57 -0.63, 11.55 -0.17, 11.59 0.07 M10.51 0.5 C12.82 -0.05, 15.85 0.15, 17.87 1.49 C19.89 2.83, 21.79 6.17, 22.62 8.54 C23.46 10.92, 23.6 13.54, 22.89 15.74 C22.17 17.95, 20.48 20.33, 18.35 21.78 C16.21 23.22, 12.77 24.87, 10.09 24.41 C7.41 23.96, 3.93 21.25, 2.26 19.06 C0.58 16.87, -0.17 13.78, 0.04 11.25 C0.25 8.73, 1.88 5.73, 3.49 3.93 C5.1 2.13, 8.67 1.04, 9.71 0.43 C10.75 -0.19, 9.77 0.16, 9.73 0.24" stroke="none" stroke-width="0" fill="#1e1e1e"/><path d="M11.4 -0.32 C13.89 -0.68, 17.7 0.43, 19.71 2.1 C21.72 3.77, 23.06 7.03, 23.48 9.7 C23.89 12.38, 23.39 15.92, 22.2 18.15 C21 20.39, 18.66 22.15, 16.31 23.11 C13.97 24.06, 10.59 24.64, 8.13 23.87 C5.68 23.11, 2.85 20.69, 1.59 18.49 C0.33 16.28, 0.23 13.15, 0.58 10.64 C0.92 8.13, 1.72 5.29, 3.66 3.44 C5.6 1.59, 10.74 0.1, 12.2 -0.45 C13.65 -1, 12.36 -0.16, 12.39 0.14 M10.72 -0.59 C13.15 -0.76, 17.68 1.03, 19.89 2.68 C22.1 4.32, 23.52 6.91, 23.96 9.26 C24.4 11.6, 23.58 14.3, 22.5 16.72 C21.43 19.14, 19.85 22.69, 17.53 23.76 C15.21 24.83, 11.21 24.08, 8.57 23.15 C5.94 22.21, 3.13 20.21, 1.71 18.18 C0.29 16.14, -0.27 13.48, 0.06 10.96 C0.39 8.43, 1.7 4.88, 3.68 3.01 C5.66 1.15, 10.58 0.1, 11.93 -0.25 C13.28 -0.59, 11.73 0.7, 11.76 0.93" stroke="#1e1e1e" stroke-width="2" fill="none"/></g><g stroke-linecap="round" transform="translate(218.69335875 10) rotate(0 184.16015625 184.16015625)"><path d="M176.32 0.95 C192.54 -2.74, 211.73 1.68, 228.5 5.89 C245.27 10.1, 261.96 17.46, 276.94 26.19 C291.91 34.92, 306.32 45.87, 318.37 58.26 C330.42 70.65, 341.34 85.25, 349.22 100.51 C357.09 115.78, 362.59 132.91, 365.6 149.85 C368.61 166.8, 368.96 184.99, 367.29 202.18 C365.61 219.38, 361.94 237.03, 355.55 253 C349.16 268.96, 339.72 284.21, 328.95 297.96 C318.19 311.71, 305.19 325.27, 290.97 335.5 C276.74 345.73, 260.29 353.76, 243.61 359.35 C226.93 364.94, 208.11 368.55, 190.89 369.05 C173.67 369.54, 157.08 366.59, 140.29 362.32 C123.5 358.04, 105.36 351.91, 90.16 343.4 C74.97 334.9, 60.9 323.89, 49.12 311.28 C37.35 298.67, 27.22 283.38, 19.51 267.75 C11.8 252.13, 5.87 234.46, 2.85 217.53 C-0.16 200.6, -0.42 183.42, 1.41 166.17 C3.24 148.91, 7.25 130.01, 13.83 113.98 C20.41 97.95, 29.98 83.35, 40.89 69.99 C51.8 56.63, 65.17 43.87, 79.29 33.79 C93.42 23.72, 108.54 15.21, 125.64 9.56 C142.74 3.9, 171.7 0.99, 181.87 -0.14 C192.05 -1.28, 186.72 -0.36, 186.71 2.74 M101.36 19.06 C114.93 9.16, 135.28 6.71, 152.17 3.6 C169.06 0.48, 185.43 -1.57, 202.67 0.39 C219.92 2.34, 239.71 8.45, 255.66 15.31 C271.6 22.17, 284.94 30.72, 298.36 41.54 C311.79 52.35, 326.36 66.26, 336.2 80.21 C346.05 94.17, 352.34 108.93, 357.43 125.28 C362.53 141.64, 366.02 160.79, 366.75 178.35 C367.49 195.9, 365.83 214.03, 361.84 230.61 C357.85 247.19, 351.52 263.38, 342.79 277.83 C334.06 292.28, 321.97 305.64, 309.45 317.3 C296.92 328.95, 282.99 339.59, 267.66 347.77 C252.32 355.96, 234.53 362.94, 217.42 366.39 C200.31 369.83, 182.24 370.65, 164.99 368.44 C147.74 366.24, 130.07 360.19, 113.92 353.17 C97.77 346.16, 81.78 336.75, 68.09 326.37 C54.39 315.99, 41.49 304.76, 31.74 290.9 C21.98 277.05, 14.71 259.93, 9.57 243.22 C4.43 226.52, 1.52 208.07, 0.88 190.67 C0.25 173.27, 1.68 155.48, 5.77 138.84 C9.87 122.21, 16.48 105.73, 25.47 90.86 C34.46 76, 47.08 61.42, 59.72 49.65 C72.37 37.88, 94.01 24.67, 101.34 20.25 C108.68 15.82, 102.29 20.65, 103.71 23.08" stroke="none" stroke-width="0" fill="#99e9f244"/><path d="M225.11 5.48 C241.7 6.43, 259.04 15.24, 273.97 23.47 C288.9 31.7, 302.77 42.53, 314.7 54.84 C326.62 67.15, 337.29 81.9, 345.53 97.32 C353.78 112.74, 360.48 130.48, 364.16 147.37 C367.84 164.25, 368.94 181.43, 367.63 198.65 C366.31 215.87, 362.3 234.56, 356.26 250.66 C350.23 266.77, 341.93 281.5, 331.4 295.29 C320.87 309.08, 307.05 323.04, 293.08 333.4 C279.12 343.75, 263.95 351.68, 247.63 357.41 C231.31 363.14, 212.59 366.77, 195.15 367.76 C177.71 368.74, 159.66 366.99, 142.99 363.32 C126.32 359.65, 110.02 354.02, 95.13 345.74 C80.23 337.46, 65.81 326.14, 53.62 313.65 C41.42 301.15, 30.13 286.04, 21.97 270.76 C13.82 255.49, 8.23 238.89, 4.69 221.98 C1.15 205.08, -0.35 186.68, 0.75 169.32 C1.85 151.96, 5.19 133.79, 11.28 117.83 C17.36 101.87, 26.58 87.3, 37.27 73.55 C47.95 59.81, 61.28 45.79, 75.4 35.37 C89.52 24.94, 105.72 16.73, 121.97 11 C138.21 5.27, 154.11 1.66, 172.87 1 C191.62 0.35, 223.14 5.12, 234.5 7.08 C245.87 9.04, 241.97 9.75, 241.07 12.77 M271.59 22.99 C287.5 28.21, 299.89 39.92, 312.06 51.75 C324.23 63.58, 336.01 78.89, 344.61 93.95 C353.2 109.02, 359.79 124.96, 363.64 142.13 C367.49 159.3, 368.81 179.61, 367.69 196.95 C366.58 214.29, 362.63 229.9, 356.94 246.18 C351.26 262.46, 343.72 280.47, 333.6 294.62 C323.48 308.78, 310.33 320.98, 296.21 331.12 C282.1 341.26, 265.19 349.11, 248.9 355.46 C232.61 361.81, 215.7 367.86, 198.46 369.23 C181.22 370.59, 162.49 367.47, 145.46 363.63 C128.42 359.79, 111.49 354.07, 96.26 346.19 C81.03 338.31, 66.45 328.38, 54.07 316.34 C41.69 304.29, 30.48 289.2, 21.98 273.92 C13.48 258.63, 6.63 241.39, 3.06 224.63 C-0.51 207.87, -0.95 190.72, 0.55 173.37 C2.05 156.01, 6.16 136.7, 12.07 120.5 C17.98 104.31, 26.03 89.84, 36 76.21 C45.98 62.59, 58.23 49.49, 71.93 38.73 C85.62 27.97, 101.92 18.05, 118.15 11.67 C134.39 5.29, 151.83 1.94, 169.33 0.43 C186.84 -1.07, 206.04 -1.07, 223.16 2.64 C240.28 6.34, 264.43 18.85, 272.05 22.67 C279.68 26.49, 270.59 23.14, 268.91 25.56" stroke="#1971c2" stroke-width="2" fill="none"/></g><g stroke-linecap="round" transform="translate(10 10.00000025) rotate(0 184.160156 184.160156)"><path d="M100.69 19.97 C114 9.94, 132.13 7.36, 149.08 4.02 C166.03 0.69, 185.09 -1.68, 202.4 -0.04 C219.71 1.6, 236.9 7.34, 252.95 13.88 C268.99 20.42, 284.95 28.68, 298.68 39.22 C312.42 49.76, 325.38 62.85, 335.36 77.12 C345.34 91.38, 353.18 108.3, 358.56 124.8 C363.94 141.3, 366.79 158.9, 367.64 176.11 C368.5 193.33, 367.76 211.18, 363.71 228.07 C359.67 244.95, 352.24 262.55, 343.38 277.41 C334.51 292.27, 323.1 305.55, 310.5 317.25 C297.91 328.95, 283.16 339.49, 267.82 347.59 C252.48 355.7, 235.52 362.58, 218.45 365.89 C201.39 369.2, 182.65 369.13, 165.41 367.46 C148.16 365.79, 130.85 362.25, 114.97 355.88 C99.1 349.5, 83.64 340.16, 70.15 329.21 C56.66 318.27, 44.18 304.36, 34.05 290.22 C23.92 276.09, 15.06 260.77, 9.35 244.4 C3.65 228.03, 0.4 209.41, -0.17 192.01 C-0.74 174.62, 1.83 156.69, 5.93 140.01 C10.03 123.33, 15.72 106.96, 24.45 91.94 C33.19 76.92, 43.43 62.85, 58.35 49.9 C73.28 36.94, 102.23 20.59, 114 14.21 C125.76 7.83, 127.86 8.72, 128.96 11.59 M203.25 -0.35 C220.16 -1.82, 240.41 6.44, 256.43 13.41 C272.45 20.39, 285.97 30.32, 299.37 41.49 C312.76 52.67, 327.06 66.18, 336.79 80.47 C346.53 94.77, 352.35 110.84, 357.77 127.23 C363.19 143.63, 368.79 161.8, 369.31 178.82 C369.84 195.85, 365.64 212.66, 360.93 229.38 C356.21 246.1, 349.47 264.15, 341.02 279.14 C332.58 294.14, 322.97 307.5, 310.27 319.35 C297.56 331.19, 280.28 342.47, 264.81 350.22 C249.35 357.98, 234.15 363.23, 217.48 365.87 C200.82 368.52, 182.04 368.22, 164.82 366.08 C147.61 363.94, 130.2 359.39, 114.19 353.05 C98.17 346.71, 82.19 338.89, 68.74 328.04 C55.3 317.18, 43.4 302.16, 33.53 287.92 C23.66 273.67, 15.14 258.84, 9.52 242.58 C3.89 226.31, 0.25 207.73, -0.22 190.34 C-0.69 172.95, 2.28 155.08, 6.69 138.25 C11.11 121.43, 17.29 104.41, 26.25 89.38 C35.22 74.36, 47.71 59.77, 60.5 48.11 C73.29 36.45, 87.84 27.05, 103.01 19.4 C118.18 11.76, 134.43 5.3, 151.51 2.22 C168.59 -0.87, 196.78 0.23, 205.5 0.89 C214.23 1.56, 204.53 2.9, 203.86 6.19" stroke="none" stroke-width="0" fill="#99e9f244"/><path d="M203.65 0.95 C220.04 -0.42, 237.19 6.78, 252.92 13.17 C268.66 19.56, 284.23 28.43, 298.06 39.29 C311.88 50.16, 325.72 64, 335.88 78.38 C346.04 92.76, 353.68 109.2, 359.02 125.59 C364.37 141.98, 367.32 159.52, 367.95 176.7 C368.58 193.88, 366.92 211.74, 362.82 228.65 C358.72 245.55, 352.06 263.2, 343.33 278.13 C334.6 293.05, 322.99 306.41, 310.42 318.19 C297.85 329.96, 283.3 340.93, 267.89 348.78 C252.48 356.63, 235.15 362.26, 217.94 365.31 C200.73 368.35, 181.74 368.67, 164.64 367.04 C147.54 365.4, 131.09 361.88, 115.34 355.5 C99.58 349.11, 83.81 339.73, 70.1 328.71 C56.39 317.69, 43.1 303.67, 33.09 289.37 C23.08 275.08, 15.6 259.24, 10.05 242.94 C4.49 226.65, 0.49 208.73, -0.22 191.62 C-0.92 174.51, 1.44 157.15, 5.8 140.29 C10.16 123.43, 17.2 105.48, 25.94 90.45 C34.67 75.42, 45.76 61.9, 58.21 50.12 C70.67 38.33, 85.14 27.72, 100.65 19.74 C116.16 11.75, 133.31 5.21, 151.27 2.18 C169.23 -0.85, 197.89 0.88, 208.41 1.56 C218.94 2.24, 214.65 3.31, 214.42 6.24 M156.82 0.64 C172.79 -4.53, 192.18 -0.49, 209.4 2.25 C226.61 4.99, 244.24 10.22, 260.13 17.08 C276.03 23.93, 291.64 32.6, 304.76 43.4 C317.87 54.2, 329.38 67.55, 338.82 81.87 C348.25 96.2, 356.24 112.71, 361.35 129.36 C366.47 146, 369.39 164.32, 369.5 181.76 C369.61 199.2, 366.98 217.13, 362 234 C357.03 250.87, 349.05 268.38, 339.65 282.97 C330.25 297.55, 318.44 310.27, 305.6 321.49 C292.76 332.71, 278.01 342.89, 262.62 350.27 C247.22 357.65, 230.36 363.15, 213.22 365.77 C196.07 368.4, 176.88 368.09, 159.76 366.03 C142.64 363.96, 126.36 360.2, 110.5 353.38 C94.65 346.56, 77.99 336.51, 64.61 325.1 C51.24 313.68, 39.91 299.68, 30.23 284.9 C20.55 270.12, 11.76 252.98, 6.54 236.43 C1.32 219.87, -1.19 202.67, -1.08 185.56 C-0.97 168.45, 2.19 150.3, 7.18 133.78 C12.17 117.26, 19.61 101.06, 28.87 86.43 C38.13 71.8, 49.84 57.5, 62.72 46.01 C75.59 34.51, 90.61 24.86, 106.13 17.45 C121.64 10.04, 147.4 3.72, 155.79 1.55 C164.19 -0.62, 156.12 1.19, 156.49 4.43" stroke="#1971c2" stroke-width="2" fill="none"/></g></svg>