<svg version="1.1" xmlns="http://www.w3.org/2000/svg" viewBox="0 0 461.8295530661941 386.29342622370456" width="461.8295530661941" height="386.29342622370456" class="excalidraw-svg">
  <!-- svg-source:excalidraw -->
  
  <defs>
    <style class="style-fonts">
      
    </style>
    
  </defs>
  <rect x="0" y="0" width="461.8295530661941" height="386.29342622370456" fill="#ffffff"/><g stroke-linecap="round"><g transform="translate(115.69891726896168 360.1710051052272) rotate(0 1.4210854715202004e-14 -175.15234375)"><path d="M-0.38 0.04 C-0.57 -58.25, -0.13 -291.73, -0.17 -350.17 M1.62 -0.98 C1.18 -59.01, -0.65 -290.49, -1.2 -348.56" stroke="#1e1e1e" stroke-width="2" fill="none"/></g><g transform="translate(115.69891726896168 360.1710051052272) rotate(0 1.4210854715202004e-14 -175.15234375)"><path d="M7.55 -325.15 C4.39 -334.32, 1.23 -343.95, -1.2 -348.56 M7.55 -325.15 C4.7 -331.36, 2.36 -338.21, -1.2 -348.56" stroke="#1e1e1e" stroke-width="2" fill="none"/></g><g transform="translate(115.69891726896168 360.1710051052272) rotate(0 1.4210854715202004e-14 -175.15234375)"><path d="M-9.55 -325 C-6.23 -334.18, -2.92 -343.86, -1.2 -348.56 M-9.55 -325 C-7.68 -331.12, -5.32 -338.01, -1.2 -348.56" stroke="#1e1e1e" stroke-width="2" fill="none"/></g></g><mask/><g stroke-linecap="round"><g transform="translate(39.63251101896168 307.1241301052272) rotate(0 201.67578125 0)"><path d="M-0.1 -0.83 C66.94 -0.75, 335.93 -0.4, 403.12 -0.33 M-1.61 1.35 C65.18 1.68, 334.76 1.14, 402.05 1.03" stroke="#1e1e1e" stroke-width="2" fill="none"/></g><g transform="translate(39.63251101896168 307.1241301052272) rotate(0 201.67578125 0)"><path d="M378.57 9.62 C385.99 6.06, 395.54 2.76, 402.05 1.03 M378.57 9.62 C385.11 7.2, 391.69 5.92, 402.05 1.03" stroke="#1e1e1e" stroke-width="2" fill="none"/></g><g transform="translate(39.63251101896168 307.1241301052272) rotate(0 201.67578125 0)"><path d="M378.54 -7.48 C385.85 -4.68, 395.42 -1.62, 402.05 1.03 M378.54 -7.48 C385.14 -5.36, 391.72 -2.1, 402.05 1.03" stroke="#1e1e1e" stroke-width="2" fill="none"/></g></g><mask/><g stroke-linecap="round"><g transform="translate(53.64422976896168 354.1670988552272) rotate(0 198.673828125 -150.1328125)"><path d="M0.58 -0.11 C66.8 -50.38, 332.02 -250.31, 398.19 -300.44" stroke="#2f9e44" stroke-width="2.5" fill="none" stroke-dasharray="8 10"/></g></g><mask/><g stroke-linecap="round"><g transform="translate(10.60516726896168 15.86631760522721) rotate(0 103.591796875 94.5859375)"><path d="M-0.61 0.77 C5.4 20.37, 19.39 84.9, 36.59 116.43 C53.79 147.96, 79.8 190.37, 102.61 189.95 C125.43 189.53, 156.1 145.09, 173.47 113.91 C190.85 82.72, 201.41 21.41, 206.88 2.85 M1.28 0.13 C7.12 19.98, 19.12 86.3, 35.93 117.61 C52.74 148.93, 79.22 188.99, 102.12 188.02 C125.03 187.05, 155.56 142.5, 173.36 111.77 C191.16 81.05, 203.26 22.01, 208.9 3.68" stroke="#1e1e1e" stroke-width="2" fill="none"/></g></g><mask/><g stroke-linecap="round"><g transform="translate(420.9645422689617 243.0694426052272) rotate(0 -94.080078125 66.056640625)"><path d="M0.42 -0.26 C-18.41 2.11, -82.45 3.65, -114.05 14.45 C-145.66 25.25, -190.68 47.17, -189.21 64.53 C-187.73 81.89, -135.94 107.27, -105.21 118.61 C-74.48 129.95, -21.86 130.14, -4.81 132.59 M-0.82 -1.43 C-19.19 0.55, -80.84 1.92, -111.84 12.56 C-142.85 23.21, -188 45.15, -186.87 62.44 C-185.73 79.73, -135.66 104.53, -105.02 116.32 C-74.39 128.12, -19.78 130.48, -3.05 133.22" stroke="#1e1e1e" stroke-width="2" fill="none"/></g></g><mask/></svg>