<svg version="1.1" xmlns="http://www.w3.org/2000/svg" viewBox="0 0 526.44140625 198.1953125" width="526.44140625" height="198.1953125" filter="invert(93%) hue-rotate(180deg)" class="excalidraw-svg">
  <!-- svg-source:excalidraw -->
  
  <defs>
    <style class="style-fonts">
      
    </style>
    
  </defs>
  <rect x="0" y="0" width="526.44140625" height="198.1953125" fill="#ffffff"/><g stroke-linecap="round"><g transform="translate(66.39453125 44.859375) rotate(0 0.5 13.01171875)"><path d="M-0.21 -0.07 C-0.13 4.13, 0.52 21.07, 0.76 25.5 M0.68 -0.58 C0.65 3.64, 0.15 21.56, 0.2 25.93" stroke="#1e1e1e" stroke-width="2" fill="none"/></g></g><mask/><g stroke-linecap="round"><g transform="translate(161.4765625 45.859375) rotate(0 0.5 13.01171875)"><path d="M0.5 -0.02 C0.71 4.26, 0.79 21.46, 0.94 25.72 M0.1 -0.51 C0.26 3.84, 0.29 21.87, 0.47 26.27" stroke="#1e1e1e" stroke-width="2" fill="none"/></g></g><mask/><g stroke-linecap="round"><g transform="translate(241.546875 42.859375) rotate(0 0 15.01171875)"><path d="M0.27 -0.25 C0.28 4.79, 0.53 25.06, 0.42 30.17 M-0.26 0.81 C-0.31 5.69, 0.04 24.5, 0.21 29.28" stroke="#1e1e1e" stroke-width="2" fill="none"/></g></g><mask/><g stroke-linecap="round"><g transform="translate(318.61328125 42.859375) rotate(0 -0.5 15.51171875)"><path d="M-0.1 -0.39 C-0.27 4.86, -0.33 26.29, -0.54 31.46 M-0.81 0.6 C-1.05 5.7, -0.83 25.65, -0.74 30.71" stroke="#1e1e1e" stroke-width="2" fill="none"/></g></g><mask/><g stroke-linecap="round"><g transform="translate(392.6796875 42.859375) rotate(0 0 14.01171875)"><path d="M0.2 -0.07 C0.18 4.76, -0.4 23.83, -0.42 28.55 M-0.37 -0.58 C-0.19 4.14, 0.57 23.2, 0.59 27.85" stroke="#1e1e1e" stroke-width="2" fill="none"/></g></g><mask/><g stroke-linecap="round"><g transform="translate(453.73046875 42.859375) rotate(0 0.501953125 16.013671875)"><path d="M0.03 -0.54 C0.3 4.93, 1.2 26.89, 1.28 32.35 M-0.62 0.37 C-0.37 5.72, 0.62 26.4, 0.99 31.56" stroke="#1e1e1e" stroke-width="2" fill="none"/></g></g><mask/><g stroke-linecap="round"><g transform="translate(11.34375 58.87109375) rotate(0 250.21875 -0.5)"><path d="M-1 0.96 C82.28 1.09, 416.94 0.47, 500.51 0.02 M0.67 0.42 C83.72 0.3, 416.44 -1.37, 499.61 -1.57" stroke="#1e1e1e" stroke-width="2" fill="none"/></g></g><mask/><g transform="translate(10 57.04296875) rotate(0 253.220703125 1)" stroke="none"><path fill="#1e1e1e" d="M -0.92,-0.92 Q -0.92,-0.92 -0.31,-1.48 0.28,-2.05 0.97,-2.43 1.67,-2.80 2.66,-3.34 3.66,-3.87 4.29,-4.47 4.93,-5.07 5.88,-5.58 6.82,-6.09 7.17,-6.95 7.51,-7.80 8.04,-8.27 8.58,-8.74 9.22,-9.43 9.87,-10.11 10.49,-10.25 11.12,-10.38 11.66,-10.43 12.21,-10.47 13.49,-10.36 14.77,-10.26 15.35,-9.80 15.93,-9.34 16.68,-8.54 17.42,-7.73 17.90,-7.22 18.37,-6.71 18.65,-6.08 18.93,-5.45 19.55,-4.80 20.16,-4.16 20.63,-2.85 21.11,-1.55 21.54,-0.94 21.98,-0.33 22.47,0.16 22.97,0.66 23.65,0.97 24.32,1.29 24.82,1.77 25.32,2.25 25.95,2.69 26.58,3.13 27.44,3.68 28.29,4.24 28.83,4.85 29.38,5.47 30.07,6.09 30.76,6.70 31.48,7.04 32.19,7.39 32.84,7.44 33.48,7.50 34.11,7.25 34.74,7.00 35.04,6.34 35.34,5.68 35.82,5.19 36.29,4.69 36.73,4.07 37.16,3.44 37.76,2.25 38.36,1.05 38.85,0.48 39.34,-0.07 40.00,-0.91 40.66,-1.74 41.19,-2.31 41.71,-2.88 42.07,-3.60 42.43,-4.32 43.11,-4.70 43.79,-5.08 44.58,-5.76 45.37,-6.44 46.08,-6.76 46.79,-7.09 47.88,-7.65 48.97,-8.22 49.95,-8.16 50.93,-8.10 51.47,-7.70 52.00,-7.30 52.73,-6.51 53.46,-5.72 53.92,-5.24 54.38,-4.75 54.87,-4.23 55.36,-3.71 55.71,-3.00 56.06,-2.30 56.80,-1.05 57.53,0.18 57.78,0.94 58.03,1.69 58.33,2.47 58.63,3.26 59.00,4.20 59.38,5.15 59.81,5.76 60.24,6.37 60.72,7.30 61.20,8.23 61.44,8.92 61.68,9.61 62.30,10.29 62.92,10.97 63.63,11.75 64.33,12.52 64.65,13.14 64.97,13.75 66.01,14.54 67.06,15.32 67.60,15.83 68.14,16.35 68.83,16.83 69.52,17.30 70.01,17.92 70.49,18.54 71.31,18.99 72.14,19.44 72.96,20.06 73.78,20.68 74.61,20.61 75.44,20.54 76.34,20.55 77.24,20.57 77.98,20.26 78.72,19.95 79.41,19.06 80.10,18.17 80.68,17.41 81.26,16.65 81.90,16.14 82.55,15.63 82.96,14.84 83.37,14.04 84.26,12.97 85.15,11.91 86.06,10.40 86.96,8.90 87.35,8.00 87.73,7.11 88.49,5.27 89.25,3.43 90.46,1.18 91.67,-1.06 92.46,-2.84 93.25,-4.62 93.87,-6.23 94.50,-7.84 95.05,-9.66 95.60,-11.48 96.43,-13.45 97.25,-15.41 97.87,-17.64 98.50,-19.86 99.35,-22.00 100.21,-24.15 100.85,-26.17 101.49,-28.19 102.05,-30.48 102.61,-32.77 103.43,-35.22 104.25,-37.67 104.89,-39.56 105.52,-41.45 106.09,-42.85 106.65,-44.24 106.86,-45.11 107.07,-45.98 107.51,-46.55 107.96,-47.11 108.70,-47.39 109.44,-47.66 110.45,-47.11 111.47,-46.57 112.34,-46.05 113.21,-45.52 113.73,-44.96 114.25,-44.39 115.03,-43.75 115.80,-43.10 116.43,-42.71 117.06,-42.31 117.51,-41.73 117.95,-41.16 118.31,-40.40 118.66,-39.64 118.80,-38.28 118.94,-36.91 119.22,-35.91 119.49,-34.92 119.88,-33.91 120.27,-32.89 120.50,-32.11 120.74,-31.33 121.07,-30.51 121.41,-29.68 121.62,-28.95 121.83,-28.23 121.94,-27.61 122.05,-26.99 122.33,-26.30 122.61,-25.60 122.98,-24.69 123.36,-23.78 123.81,-22.16 124.26,-20.55 124.70,-19.34 125.15,-18.13 125.40,-17.28 125.64,-16.43 125.99,-15.56 126.33,-14.69 126.76,-13.41 127.19,-12.13 127.65,-10.72 128.12,-9.31 128.32,-8.08 128.52,-6.86 129.16,-5.28 129.79,-3.70 130.08,-2.37 130.37,-1.03 131.04,0.60 131.72,2.24 132.02,3.28 132.33,4.32 132.74,5.91 133.15,7.50 133.61,9.32 134.08,11.15 134.56,12.77 135.04,14.40 135.53,16.25 136.02,18.11 136.51,19.44 137.00,20.78 137.25,21.67 137.51,22.56 137.87,23.46 138.24,24.35 138.42,25.40 138.61,26.45 138.73,27.17 138.85,27.89 139.15,28.67 139.45,29.44 139.64,30.15 139.83,30.86 139.93,31.44 140.02,32.01 140.61,31.49 141.20,30.97 141.48,30.46 141.76,29.96 142.29,29.59 142.81,29.22 143.41,28.58 144.01,27.94 144.72,26.88 145.43,25.83 145.91,25.32 146.39,24.81 146.87,23.71 147.36,22.61 147.90,21.18 148.45,19.76 148.95,19.02 149.45,18.28 149.98,17.00 150.50,15.72 150.61,15.18 150.72,14.63 151.14,13.91 151.56,13.18 152.05,12.11 152.54,11.04 153.02,10.04 153.50,9.03 153.57,8.48 153.65,7.92 154.08,6.92 154.51,5.93 154.67,5.26 154.83,4.59 155.30,4.06 155.77,3.53 155.87,2.38 155.96,1.23 156.38,0.76 156.79,0.29 156.73,-0.36 156.67,-1.01 156.77,-1.75 156.86,-2.49 157.26,-3.00 157.66,-3.52 157.74,-4.55 157.82,-5.58 158.26,-6.12 158.71,-6.65 158.78,-7.28 158.84,-7.91 159.30,-8.37 159.75,-8.82 160.08,-9.53 160.42,-10.24 160.91,-11.20 161.40,-12.15 161.89,-12.68 162.37,-13.21 163.04,-14.03 163.72,-14.84 164.08,-15.56 164.44,-16.28 164.91,-16.77 165.38,-17.27 165.89,-18.38 166.40,-19.50 166.99,-20.03 167.59,-20.56 168.07,-21.40 168.54,-22.24 169.14,-22.56 169.74,-22.88 170.38,-23.52 171.02,-24.15 171.67,-24.27 172.31,-24.40 173.60,-24.03 174.90,-23.65 175.66,-23.50 176.41,-23.35 177.00,-22.90 177.58,-22.45 178.26,-21.88 178.95,-21.32 179.49,-20.82 180.04,-20.32 180.67,-19.73 181.30,-19.13 181.95,-18.40 182.61,-17.67 182.93,-16.96 183.26,-16.26 183.56,-15.50 183.86,-14.74 184.02,-13.66 184.17,-12.58 184.46,-12.08 184.74,-11.58 184.96,-10.88 185.17,-10.18 185.46,-9.43 185.75,-8.69 185.93,-7.97 186.12,-7.24 186.64,-6.19 187.16,-5.15 187.68,-4.14 188.20,-3.14 188.90,-1.95 189.61,-0.77 190.03,0.18 190.45,1.14 190.70,1.89 190.94,2.65 191.47,3.38 191.99,4.11 192.36,4.86 192.72,5.61 193.08,6.44 193.44,7.27 194.18,8.07 194.92,8.88 195.88,10.01 196.85,11.13 197.44,11.75 198.03,12.37 198.56,12.90 199.10,13.43 200.10,13.97 201.10,14.50 201.85,14.58 202.60,14.66 203.30,14.77 204.01,14.88 204.60,14.36 205.20,13.84 205.89,13.23 206.59,12.62 207.19,12.34 207.79,12.07 208.31,11.56 208.83,11.05 209.43,10.43 210.04,9.81 210.35,9.34 210.66,8.86 211.29,8.38 211.93,7.90 212.29,7.39 212.65,6.87 213.21,6.47 213.76,6.07 214.28,5.54 214.80,5.01 215.11,4.35 215.42,3.70 216.07,2.90 216.73,2.09 216.76,1.55 216.79,1.01 217.27,0.55 217.74,0.09 218.26,-0.45 218.78,-1.00 219.29,-1.52 219.79,-2.03 220.28,-2.54 220.78,-3.05 221.28,-3.55 221.78,-4.05 222.28,-4.56 222.78,-5.06 223.39,-5.68 224.00,-6.30 224.88,-6.72 225.76,-7.14 226.12,-7.79 226.49,-8.45 227.11,-8.74 227.73,-9.03 228.37,-9.64 229.01,-10.25 229.74,-10.89 230.48,-11.52 231.20,-11.84 231.91,-12.17 232.71,-12.82 233.50,-13.48 234.21,-13.80 234.92,-14.11 235.31,-14.63 235.69,-15.14 236.34,-15.61 236.99,-16.08 238.05,-16.66 239.10,-17.25 240.06,-17.75 241.03,-18.25 242.03,-18.75 243.04,-19.24 243.66,-19.33 244.28,-19.42 245.11,-19.41 245.95,-19.40 247.01,-19.81 248.08,-20.21 248.68,-20.29 249.29,-20.36 249.84,-20.39 250.39,-20.43 250.97,-20.43 251.54,-20.43 252.41,-20.02 253.28,-19.60 253.74,-18.95 254.20,-18.30 254.55,-17.52 254.89,-16.74 255.28,-15.81 255.66,-14.88 255.90,-14.11 256.13,-13.33 256.21,-12.36 256.28,-11.40 256.53,-10.57 256.77,-9.75 256.94,-8.99 257.11,-8.24 257.41,-7.46 257.70,-6.68 257.89,-5.95 258.07,-5.23 258.61,-4.18 259.14,-3.12 259.61,-2.21 260.07,-1.29 260.66,-0.68 261.25,-0.06 261.79,0.90 262.33,1.88 262.95,2.62 263.56,3.37 264.04,3.84 264.52,4.31 265.01,4.80 265.49,5.29 265.96,5.78 266.43,6.27 267.37,6.80 268.31,7.32 269.29,7.82 270.28,8.32 270.98,8.40 271.67,8.48 272.60,8.50 273.53,8.52 274.30,8.56 275.08,8.60 275.99,8.65 276.89,8.71 277.57,8.71 278.24,8.71 278.78,8.71 279.31,8.70 280.23,8.29 281.14,7.88 282.11,7.39 283.08,6.90 283.70,6.44 284.32,5.98 285.07,5.62 285.82,5.26 286.26,4.92 286.69,4.59 287.18,4.15 287.67,3.72 288.28,3.46 288.89,3.20 289.43,2.68 289.97,2.15 290.33,1.43 290.69,0.71 291.28,0.41 291.87,0.11 291.90,-0.42 291.93,-0.95 292.47,-1.48 293.01,-2.01 293.39,-2.55 293.76,-3.09 294.31,-3.49 294.85,-3.89 295.19,-4.59 295.54,-5.29 295.96,-5.93 296.38,-6.57 296.92,-7.41 297.45,-8.25 297.65,-8.87 297.84,-9.50 298.35,-10.01 298.86,-10.53 299.41,-11.17 299.96,-11.81 300.57,-12.45 301.17,-13.10 302.17,-13.06 303.16,-13.03 303.67,-12.64 304.19,-12.26 304.81,-11.22 305.44,-10.18 305.86,-9.28 306.29,-8.38 306.87,-7.76 307.45,-7.14 308.09,-6.41 308.73,-5.68 309.06,-4.96 309.38,-4.25 309.49,-3.65 309.59,-3.05 310.00,-2.51 310.42,-1.97 310.94,-0.95 311.45,0.06 311.71,0.79 311.96,1.52 312.55,2.53 313.14,3.55 313.71,4.24 314.28,4.93 314.59,5.64 314.89,6.36 315.09,7.07 315.28,7.78 315.78,9.17 316.27,10.56 316.56,11.03 316.84,11.49 317.03,12.52 317.22,13.55 317.49,14.73 317.76,15.91 318.15,17.30 318.53,18.68 318.95,19.82 319.38,20.97 319.62,21.79 319.86,22.62 320.21,23.11 320.56,23.60 320.81,24.26 321.05,24.91 321.74,25.72 322.44,26.52 323.21,27.12 323.99,27.72 324.58,27.76 325.18,27.79 325.61,28.24 326.05,28.69 326.25,27.63 326.44,26.57 326.65,25.04 326.85,23.51 327.29,21.29 327.73,19.08 327.93,16.76 328.13,14.45 328.23,12.31 328.33,10.16 328.39,7.53 328.44,4.89 328.47,1.47 328.50,-1.94 328.52,-5.41 328.54,-8.88 328.55,-11.51 328.57,-14.13 328.58,-16.40 328.58,-18.66 328.88,-21.39 329.17,-24.12 329.30,-26.97 329.42,-29.81 329.48,-31.89 329.53,-33.97 329.56,-35.71 329.58,-37.45 329.58,-38.49 329.59,-39.52 329.54,-40.24 329.49,-40.97 329.44,-41.56 329.39,-42.16 329.41,-42.84 329.44,-43.53 329.83,-44.04 330.23,-44.55 330.87,-44.77 331.51,-44.99 332.52,-44.73 333.54,-44.47 334.28,-44.02 335.02,-43.58 335.88,-42.73 336.75,-41.88 337.19,-41.19 337.64,-40.51 338.36,-39.82 339.09,-39.12 339.44,-38.38 339.79,-37.64 340.18,-36.75 340.56,-35.85 341.32,-35.02 342.07,-34.18 342.42,-33.42 342.77,-32.65 342.99,-31.94 343.20,-31.23 343.50,-30.46 343.80,-29.69 344.00,-28.96 344.20,-28.23 344.48,-26.80 344.77,-25.37 345.14,-24.57 345.52,-23.76 345.98,-21.84 346.45,-19.92 346.63,-18.83 346.81,-17.73 347.16,-15.84 347.51,-13.95 347.93,-12.61 348.35,-11.27 348.54,-10.05 348.73,-8.84 349.07,-7.82 349.42,-6.81 349.63,-6.04 349.85,-5.26 350.18,-4.11 350.50,-2.96 350.65,-1.52 350.80,-0.09 351.14,1.30 351.47,2.70 352.18,4.72 352.89,6.74 353.20,8.53 353.52,10.32 353.92,11.28 354.31,12.24 354.52,13.32 354.72,14.39 354.85,15.12 354.98,15.84 355.30,16.28 355.62,16.72 355.83,17.35 356.05,17.97 356.55,18.91 357.05,19.85 357.41,18.81 357.78,17.78 358.36,17.48 358.95,17.18 358.98,16.62 359.02,16.07 359.48,15.63 359.95,15.20 360.24,14.34 360.52,13.49 360.68,12.54 360.83,11.59 361.23,10.82 361.63,10.05 362.13,9.01 362.62,7.96 362.71,7.23 362.80,6.51 363.21,5.75 363.62,4.99 364.22,4.16 364.83,3.34 365.32,2.35 365.81,1.36 366.17,0.44 366.53,-0.48 367.03,-1.58 367.53,-2.67 367.71,-3.39 367.89,-4.11 368.32,-5.08 368.76,-6.06 368.87,-6.66 368.99,-7.26 369.40,-8.69 369.82,-10.12 370.60,-12.20 371.39,-14.28 372.02,-16.00 372.64,-17.72 373.20,-19.58 373.76,-21.44 374.00,-23.05 374.24,-24.66 374.65,-26.00 375.06,-27.33 375.52,-28.75 375.98,-30.16 376.48,-31.36 376.97,-32.55 377.12,-33.31 377.27,-34.06 377.34,-34.72 377.41,-35.38 377.80,-35.87 378.20,-36.35 378.54,-37.15 378.88,-37.94 379.01,-38.59 379.13,-39.23 379.22,-39.86 379.30,-40.50 379.74,-41.02 380.17,-41.54 380.62,-42.25 381.07,-42.96 381.64,-43.42 382.21,-43.87 382.82,-44.04 383.44,-44.20 384.09,-44.23 384.74,-44.26 385.82,-43.56 386.90,-42.86 387.73,-42.29 388.57,-41.73 389.12,-41.10 389.67,-40.47 390.33,-39.67 390.99,-38.88 391.62,-37.55 392.26,-36.21 392.77,-35.46 393.27,-34.71 394.05,-33.48 394.84,-32.26 395.23,-31.40 395.63,-30.54 396.04,-29.31 396.46,-28.07 396.65,-26.31 396.83,-24.56 396.89,-23.26 396.96,-21.95 397.26,-20.30 397.57,-18.65 397.71,-17.62 397.85,-16.60 397.90,-14.69 397.96,-12.79 397.97,-10.84 397.99,-8.89 398.29,-6.37 398.58,-3.85 398.99,-1.64 399.39,0.57 399.57,2.41 399.75,4.25 400.11,6.73 400.47,9.22 400.91,12.29 401.35,15.37 401.54,17.85 401.72,20.33 402.37,23.05 403.02,25.77 403.59,28.98 404.16,32.19 404.68,34.39 405.21,36.60 405.72,38.98 406.23,41.37 406.45,42.98 406.68,44.59 407.04,45.48 407.41,46.37 407.81,46.79 408.21,47.22 408.53,46.73 408.85,46.24 408.99,45.41 409.14,44.58 409.51,43.68 409.88,42.79 409.97,42.25 410.06,41.71 410.45,40.78 410.85,39.86 411.33,38.69 411.80,37.51 412.01,36.50 412.21,35.49 412.92,33.80 413.63,32.10 413.91,30.64 414.18,29.17 414.61,27.07 415.03,24.97 415.50,22.64 415.97,20.31 416.47,18.71 416.97,17.12 417.17,15.92 417.37,14.73 417.75,12.47 418.13,10.22 418.59,8.10 419.04,5.97 419.52,3.08 420.00,0.18 420.20,-1.88 420.40,-3.96 420.78,-6.31 421.15,-8.67 421.60,-11.38 422.05,-14.10 422.53,-16.70 423.01,-19.30 423.21,-22.10 423.41,-24.89 423.79,-26.71 424.17,-28.53 424.32,-30.11 424.48,-31.70 424.53,-32.67 424.58,-33.65 424.88,-34.48 425.18,-35.31 425.26,-36.59 425.35,-37.88 425.71,-39.17 426.07,-40.45 426.20,-41.27 426.32,-42.09 427.43,-42.67 428.53,-43.24 429.10,-42.77 429.67,-42.30 429.97,-41.69 430.26,-41.07 430.81,-40.11 431.35,-39.14 431.88,-38.14 432.42,-37.14 432.51,-36.54 432.61,-35.95 432.86,-35.30 433.10,-34.66 433.27,-33.94 433.44,-33.22 433.71,-32.47 433.99,-31.73 434.35,-30.79 434.72,-29.86 434.95,-29.09 435.18,-28.32 435.30,-27.68 435.42,-27.03 435.48,-26.46 435.54,-25.89 435.75,-24.90 435.96,-23.91 436.11,-23.11 436.26,-22.31 436.54,-21.51 436.83,-20.70 437.21,-19.76 437.59,-18.81 437.83,-18.05 438.06,-17.29 438.38,-16.14 438.70,-14.99 438.89,-14.17 439.08,-13.34 439.15,-12.38 439.22,-11.42 439.49,-10.56 439.76,-9.70 439.90,-8.64 440.03,-7.59 440.37,-7.01 440.70,-6.43 440.85,-5.13 441.00,-3.83 441.31,-2.83 441.62,-1.82 441.82,-1.04 442.01,-0.26 442.08,0.27 442.14,0.81 442.69,1.43 443.25,2.05 443.36,2.61 443.47,3.17 443.85,3.98 444.24,4.78 444.85,5.35 445.46,5.93 446.11,6.64 446.77,7.35 447.21,7.82 447.64,8.29 448.23,7.57 448.81,6.84 449.26,6.06 449.72,5.27 450.24,4.16 450.76,3.04 451.43,2.11 452.10,1.18 452.47,0.29 452.85,-0.58 453.29,-1.27 453.73,-1.96 454.24,-3.00 454.75,-4.04 455.19,-4.74 455.63,-5.45 456.16,-6.14 456.69,-6.82 457.24,-7.90 457.80,-8.98 458.24,-9.70 458.69,-10.41 459.21,-11.29 459.74,-12.16 460.28,-12.91 460.83,-13.66 461.43,-14.08 462.03,-14.49 462.67,-15.18 463.31,-15.88 464.30,-16.46 465.30,-17.03 465.90,-17.14 466.50,-17.25 467.38,-17.25 468.26,-17.26 469.14,-16.93 470.03,-16.60 470.96,-15.75 471.89,-14.91 472.73,-14.31 473.58,-13.71 474.34,-12.76 475.10,-11.81 475.68,-10.82 476.26,-9.84 476.73,-9.57 477.20,-9.30 477.59,-8.72 477.98,-8.13 478.62,-7.12 479.25,-6.11 479.98,-4.93 480.72,-3.75 481.67,-2.72 482.63,-1.70 483.10,-0.77 483.57,0.16 484.36,1.00 485.15,1.84 485.49,2.58 485.83,3.32 486.55,4.09 487.26,4.86 487.96,5.63 488.67,6.39 489.44,6.57 490.22,6.74 490.68,7.20 491.13,7.67 491.95,7.10 492.76,6.53 493.24,5.69 493.72,4.85 494.60,3.60 495.49,2.34 496.07,1.55 496.64,0.75 496.86,0.14 497.07,-0.47 497.58,-0.97 498.08,-1.46 498.58,-2.03 499.08,-2.59 499.55,-3.57 500.02,-4.56 500.42,-5.36 500.81,-6.16 501.29,-6.69 501.77,-7.21 502.25,-7.70 502.73,-8.19 504.19,-9.68 505.64,-11.17 505.86,-11.23 506.07,-11.29 506.30,-11.27 506.52,-11.26 506.73,-11.18 506.94,-11.09 507.11,-10.94 507.28,-10.80 507.39,-10.60 507.51,-10.41 507.56,-10.19 507.60,-9.97 507.58,-9.75 507.55,-9.52 507.45,-9.32 507.36,-9.12 507.20,-8.95 507.05,-8.79 506.85,-8.69 506.65,-8.59 506.42,-8.55 506.20,-8.52 505.98,-8.55 505.76,-8.59 505.56,-8.70 505.36,-8.81 505.21,-8.97 505.06,-9.14 504.96,-9.34 504.87,-9.54 504.85,-9.77 504.83,-9.99 504.88,-10.21 504.93,-10.43 505.04,-10.62 505.16,-10.81 505.33,-10.96 505.51,-11.10 505.72,-11.18 505.93,-11.27 506.15,-11.28 506.38,-11.29 506.59,-11.22 506.81,-11.16 506.99,-11.03 507.18,-10.91 507.31,-10.73 507.45,-10.55 507.52,-10.33 507.59,-10.12 507.58,-9.89 507.58,-9.67 507.51,-9.46 507.44,-9.24 507.30,-9.07 507.16,-8.89 506.97,-8.76 506.79,-8.64 506.79,-8.64 506.79,-8.64 505.76,-7.50 504.73,-6.36 504.27,-5.86 503.81,-5.37 503.15,-4.64 502.49,-3.91 501.93,-3.25 501.37,-2.58 500.78,-1.67 500.19,-0.75 499.63,-0.14 499.08,0.46 498.82,1.19 498.55,1.92 498.01,2.94 497.47,3.97 497.01,4.58 496.55,5.20 495.99,6.24 495.43,7.28 495.03,7.96 494.64,8.64 494.03,9.15 493.42,9.65 492.58,9.98 491.75,10.31 491.07,10.22 490.39,10.12 489.30,9.51 488.20,8.90 487.53,8.53 486.86,8.17 486.37,7.63 485.88,7.09 485.45,6.25 485.01,5.41 484.45,4.91 483.89,4.41 483.43,3.34 482.98,2.27 482.39,1.75 481.80,1.23 481.28,0.40 480.75,-0.42 480.38,-0.98 480.01,-1.55 479.41,-2.06 478.81,-2.57 478.37,-3.31 477.92,-4.04 477.46,-5.05 476.99,-6.06 476.51,-6.96 476.04,-7.87 475.44,-8.39 474.85,-8.91 474.27,-9.77 473.69,-10.64 473.09,-11.33 472.48,-12.02 471.46,-12.59 470.44,-13.16 469.34,-13.92 468.23,-14.68 467.54,-14.63 466.85,-14.58 466.18,-14.52 465.51,-14.47 464.77,-14.11 464.03,-13.75 463.27,-13.05 462.51,-12.36 462.08,-11.76 461.65,-11.15 461.22,-10.20 460.79,-9.24 460.04,-7.99 459.29,-6.74 458.99,-6.04 458.69,-5.34 458.27,-4.78 457.86,-4.22 457.16,-3.02 456.46,-1.82 455.92,-0.77 455.38,0.27 455.12,0.98 454.86,1.70 454.09,2.51 453.31,3.33 452.86,4.26 452.41,5.20 452.18,5.89 451.94,6.59 451.64,7.06 451.34,7.54 451.02,8.60 450.70,9.66 449.85,10.37 449.00,11.07 448.06,11.03 447.12,10.98 446.43,10.62 445.73,10.26 445.22,9.76 444.71,9.25 444.23,8.74 443.76,8.23 443.44,7.52 443.12,6.81 442.62,6.22 442.12,5.63 441.72,5.17 441.32,4.72 441.22,4.09 441.12,3.47 441.16,2.91 441.20,2.35 440.82,1.87 440.43,1.39 440.37,0.73 440.30,0.07 440.20,-0.63 440.10,-1.33 439.71,-2.47 439.32,-3.61 439.18,-4.63 439.04,-5.66 438.68,-6.49 438.33,-7.33 438.20,-8.24 438.06,-9.15 437.70,-10.21 437.34,-11.27 437.28,-12.12 437.22,-12.97 437.10,-13.71 436.97,-14.45 436.56,-15.61 436.14,-16.78 436.01,-17.41 435.88,-18.04 435.39,-19.00 434.91,-19.97 434.51,-20.95 434.11,-21.94 434.00,-22.64 433.90,-23.34 433.50,-24.53 433.11,-25.73 433.07,-26.73 433.02,-27.74 432.88,-28.34 432.74,-28.94 432.24,-29.87 431.74,-30.80 431.32,-31.74 430.91,-32.67 430.81,-33.19 430.71,-33.72 430.33,-34.65 429.94,-35.58 429.86,-36.31 429.79,-37.04 429.32,-38.03 428.86,-39.02 428.45,-39.65 428.03,-40.28 428.03,-40.94 428.02,-41.61 427.88,-40.82 427.74,-40.03 427.47,-38.89 427.21,-37.74 427.13,-36.85 427.04,-35.96 426.83,-35.32 426.62,-34.67 426.29,-34.09 425.96,-33.52 425.87,-32.55 425.79,-31.57 425.62,-29.91 425.46,-28.26 425.09,-26.53 424.72,-24.79 424.52,-21.93 424.31,-19.06 423.83,-16.48 423.36,-13.89 422.91,-11.17 422.46,-8.46 422.09,-6.14 421.72,-3.83 421.52,-1.71 421.32,0.40 420.84,3.33 420.36,6.25 419.92,8.35 419.48,10.44 419.11,12.70 418.74,14.95 418.53,16.24 418.32,17.53 417.85,19.06 417.38,20.59 416.94,22.92 416.49,25.26 416.10,27.35 415.71,29.45 415.43,31.08 415.15,32.71 414.55,34.25 413.95,35.79 413.78,36.97 413.62,38.15 413.22,39.42 412.83,40.68 412.53,41.44 412.23,42.20 412.04,42.91 411.85,43.61 411.56,44.31 411.26,45.00 411.09,45.62 410.92,46.23 410.56,46.87 410.20,47.51 409.39,48.17 408.59,48.82 407.75,48.73 406.92,48.64 406.54,47.75 406.16,46.86 405.77,45.82 405.37,44.78 405.16,43.22 404.95,41.65 404.44,39.28 403.93,36.90 403.39,34.66 402.86,32.42 402.30,29.25 401.73,26.07 401.07,23.25 400.41,20.43 400.22,17.99 400.03,15.56 399.59,12.48 399.15,9.41 398.78,6.90 398.42,4.38 398.24,2.60 398.07,0.81 397.65,-1.43 397.22,-3.69 396.92,-6.28 396.61,-8.87 396.58,-10.81 396.55,-12.74 396.49,-14.57 396.42,-16.40 396.29,-17.39 396.16,-18.38 395.82,-20.12 395.49,-21.86 395.40,-23.13 395.30,-24.39 395.12,-25.96 394.94,-27.53 394.49,-28.69 394.04,-29.86 393.75,-30.60 393.46,-31.34 392.63,-32.52 391.80,-33.70 391.21,-34.55 390.63,-35.39 390.06,-36.46 389.50,-37.52 388.46,-38.71 387.42,-39.89 386.44,-40.38 385.46,-40.87 384.99,-41.28 384.52,-41.70 383.79,-41.73 383.06,-41.77 382.79,-41.20 382.52,-40.64 381.82,-40.24 381.12,-39.84 381.05,-39.30 380.98,-38.75 380.75,-37.99 380.51,-37.23 379.75,-36.03 378.98,-34.84 378.88,-34.25 378.78,-33.67 378.52,-32.85 378.26,-32.03 377.79,-30.88 377.33,-29.73 376.89,-28.32 376.45,-26.92 376.09,-25.68 375.73,-24.45 375.51,-22.73 375.28,-21.01 374.76,-19.09 374.23,-17.18 373.67,-15.43 373.10,-13.68 372.44,-11.66 371.77,-9.64 371.48,-8.20 371.18,-6.75 370.99,-6.00 370.79,-5.25 370.49,-4.41 370.20,-3.56 370.00,-2.70 369.81,-1.83 369.44,-0.57 369.07,0.69 368.78,1.40 368.49,2.11 367.95,2.79 367.40,3.47 366.87,4.41 366.34,5.35 365.99,6.16 365.64,6.97 365.55,7.56 365.47,8.14 364.98,9.14 364.48,10.14 364.04,11.08 363.61,12.02 363.53,12.62 363.46,13.22 363.27,13.95 363.07,14.68 362.79,15.38 362.50,16.07 361.89,17.12 361.29,18.18 360.82,18.79 360.36,19.41 359.79,19.79 359.23,20.16 358.80,20.76 358.37,21.37 357.53,21.63 356.69,21.90 355.90,21.20 355.11,20.51 354.71,20.06 354.31,19.62 354.18,18.58 354.05,17.55 353.73,16.80 353.41,16.05 353.38,15.34 353.36,14.63 353.21,13.69 353.06,12.74 352.62,11.65 352.17,10.56 351.87,8.88 351.57,7.20 350.83,5.12 350.09,3.03 349.72,1.55 349.35,0.06 349.20,-1.23 349.05,-2.52 348.67,-3.73 348.29,-4.93 348.19,-5.64 348.09,-6.35 347.70,-7.48 347.31,-8.60 347.12,-9.71 346.93,-10.81 346.46,-12.23 345.98,-13.65 345.59,-15.54 345.19,-17.43 344.97,-18.45 344.74,-19.48 344.26,-21.20 343.78,-22.92 343.28,-23.89 342.78,-24.87 342.36,-26.29 341.94,-27.71 341.84,-28.26 341.73,-28.82 341.22,-30.24 340.71,-31.66 340.28,-32.71 339.85,-33.75 339.28,-34.29 338.71,-34.83 338.20,-35.72 337.70,-36.61 337.34,-37.57 336.99,-38.52 336.44,-38.93 335.89,-39.33 335.63,-39.86 335.37,-40.38 334.57,-41.01 333.76,-41.65 333.29,-41.99 332.81,-42.33 331.99,-42.24 331.17,-42.15 331.12,-41.55 331.06,-40.96 331.00,-40.23 330.95,-39.50 330.93,-38.47 330.91,-37.44 330.89,-35.69 330.87,-33.93 330.83,-31.84 330.78,-29.76 330.66,-26.86 330.54,-23.97 330.25,-21.32 329.97,-18.66 329.98,-16.40 329.99,-14.13 329.99,-11.50 330.00,-8.88 330.01,-5.41 330.02,-1.94 330.03,1.48 330.03,4.91 330.03,7.56 330.03,10.22 329.99,12.39 329.96,14.57 329.84,16.99 329.73,19.42 329.42,21.59 329.11,23.77 328.91,25.79 328.71,27.81 328.21,28.76 327.70,29.71 326.99,30.31 326.27,30.91 324.75,30.48 323.22,30.05 322.61,29.44 321.99,28.83 321.06,28.24 320.12,27.66 319.67,27.15 319.21,26.64 319.05,25.62 318.88,24.59 318.49,23.85 318.09,23.10 317.93,22.36 317.77,21.62 317.24,20.44 316.72,19.25 316.23,17.87 315.74,16.50 315.31,15.23 314.87,13.97 314.76,13.31 314.66,12.65 314.24,11.86 313.83,11.06 313.74,10.46 313.65,9.86 313.12,8.64 312.60,7.42 312.24,6.45 311.87,5.47 311.36,4.43 310.85,3.39 310.37,2.94 309.88,2.48 309.67,1.86 309.46,1.24 308.89,0.44 308.31,-0.35 307.51,-1.38 306.71,-2.41 306.60,-3.08 306.50,-3.74 306.03,-4.23 305.55,-4.73 305.19,-5.45 304.84,-6.17 304.18,-7.02 303.53,-7.86 303.06,-8.75 302.60,-9.63 302.36,-10.18 302.13,-10.72 301.61,-10.23 301.09,-9.73 300.58,-9.13 300.07,-8.53 299.87,-7.81 299.66,-7.09 299.25,-6.13 298.83,-5.17 298.13,-4.01 297.43,-2.85 296.82,-2.22 296.21,-1.59 295.93,-0.99 295.64,-0.39 294.96,0.39 294.28,1.18 293.80,1.80 293.33,2.43 292.80,2.77 292.28,3.11 291.61,3.72 290.95,4.33 290.11,4.98 289.28,5.63 288.72,6.12 288.16,6.60 287.00,7.25 285.84,7.90 284.54,8.77 283.23,9.64 282.15,10.12 281.07,10.60 280.27,10.95 279.46,11.30 278.85,11.30 278.24,11.30 277.56,11.29 276.89,11.29 275.97,11.34 275.06,11.39 273.74,11.40 272.41,11.41 271.86,11.37 271.31,11.33 270.69,11.24 270.08,11.14 269.06,10.62 268.04,10.10 266.99,9.54 265.94,8.97 265.25,8.62 264.56,8.27 264.04,7.78 263.52,7.29 263.03,6.83 262.55,6.37 261.75,5.63 260.96,4.89 260.45,4.34 259.94,3.79 259.78,2.97 259.61,2.15 259.26,1.41 258.91,0.67 258.30,-0.20 257.68,-1.08 257.20,-2.16 256.72,-3.25 256.32,-3.98 255.93,-4.71 255.82,-5.30 255.72,-5.89 255.32,-6.84 254.92,-7.80 254.81,-8.42 254.71,-9.04 254.31,-10.10 253.91,-11.16 253.82,-11.91 253.74,-12.66 253.59,-13.22 253.44,-13.78 252.93,-14.63 252.42,-15.49 251.90,-16.53 251.39,-17.57 250.49,-17.54 249.59,-17.51 248.74,-17.40 247.90,-17.29 247.02,-16.92 246.14,-16.54 245.40,-16.47 244.66,-16.41 244.00,-16.33 243.34,-16.25 242.40,-15.76 241.46,-15.27 240.76,-14.94 240.06,-14.61 239.61,-14.13 239.16,-13.65 238.62,-13.61 238.08,-13.57 237.73,-12.96 237.39,-12.35 236.40,-11.78 235.42,-11.22 234.89,-10.73 234.37,-10.24 233.44,-9.72 232.51,-9.20 232.02,-8.72 231.53,-8.24 230.84,-7.90 230.15,-7.55 229.75,-6.99 229.34,-6.43 228.82,-6.05 228.30,-5.67 227.42,-4.93 226.53,-4.19 225.89,-3.89 225.25,-3.59 224.75,-3.09 224.24,-2.59 223.74,-2.09 223.24,-1.59 222.73,-1.10 222.23,-0.60 221.73,-0.10 221.23,0.38 220.74,0.87 220.25,1.36 219.84,2.24 219.44,3.13 218.85,3.76 218.27,4.40 217.84,5.28 217.41,6.16 216.79,6.77 216.17,7.38 215.66,7.91 215.15,8.44 214.85,9.05 214.55,9.66 213.85,10.05 213.15,10.43 212.85,11.04 212.55,11.65 211.84,12.00 211.13,12.36 210.59,12.87 210.05,13.39 209.65,13.93 209.25,14.47 208.69,14.85 208.13,15.23 207.60,15.74 207.08,16.25 206.45,16.29 205.83,16.34 205.34,16.72 204.86,17.10 204.11,17.18 203.35,17.26 202.80,17.20 202.26,17.15 201.65,17.03 201.05,16.92 199.99,16.30 198.93,15.68 198.28,15.32 197.63,14.95 197.08,14.38 196.53,13.82 195.93,13.19 195.32,12.57 194.50,11.80 193.68,11.03 193.23,10.15 192.78,9.27 192.23,8.74 191.68,8.21 191.23,7.33 190.77,6.45 190.58,5.89 190.38,5.33 189.58,4.34 188.78,3.35 188.62,2.75 188.47,2.16 187.94,1.30 187.42,0.43 186.98,-0.27 186.54,-0.97 186.05,-2.01 185.56,-3.04 185.07,-4.11 184.58,-5.18 184.16,-5.91 183.75,-6.64 183.64,-7.19 183.53,-7.74 183.02,-9.08 182.52,-10.43 182.10,-11.27 181.68,-12.12 181.52,-12.85 181.36,-13.59 180.88,-14.67 180.41,-15.75 179.94,-16.24 179.47,-16.72 179.15,-17.41 178.84,-18.10 178.35,-18.61 177.86,-19.13 177.37,-19.63 176.88,-20.13 176.29,-20.57 175.71,-21.00 175.00,-21.07 174.28,-21.14 173.14,-21.40 172.00,-21.65 171.61,-21.10 171.23,-20.56 170.69,-20.18 170.15,-19.80 169.48,-19.00 168.80,-18.21 168.52,-17.48 168.25,-16.76 167.92,-16.05 167.60,-15.34 166.95,-14.60 166.29,-13.86 165.69,-13.22 165.10,-12.59 164.85,-11.96 164.61,-11.33 163.98,-10.59 163.36,-9.84 162.86,-8.88 162.36,-7.92 161.84,-6.94 161.32,-5.96 160.82,-4.85 160.32,-3.74 159.88,-2.27 159.43,-0.81 159.37,0.09 159.30,1.00 158.83,1.93 158.35,2.86 158.24,3.45 158.12,4.04 157.55,4.72 156.98,5.39 156.84,6.08 156.70,6.76 156.44,7.59 156.17,8.41 155.67,9.78 155.16,11.14 154.64,12.15 154.12,13.15 153.59,14.20 153.07,15.25 152.87,15.98 152.67,16.70 152.36,17.47 152.04,18.23 151.77,18.94 151.50,19.64 151.13,20.19 150.75,20.74 150.48,21.50 150.20,22.26 150.00,23.00 149.80,23.74 149.50,24.50 149.19,25.26 148.87,25.96 148.54,26.67 147.86,27.46 147.18,28.25 146.80,28.92 146.43,29.60 145.71,29.95 144.99,30.31 144.45,30.83 143.92,31.34 143.61,31.92 143.30,32.49 142.13,33.11 140.97,33.73 139.99,33.64 139.02,33.55 138.58,33.03 138.14,32.50 138.07,31.87 138.00,31.24 137.92,30.63 137.84,30.02 137.51,29.04 137.17,28.07 137.16,27.38 137.14,26.70 137.01,25.79 136.87,24.89 136.48,23.90 136.09,22.91 135.92,22.07 135.76,21.23 135.25,19.84 134.74,18.45 134.25,16.61 133.76,14.78 133.27,13.13 132.78,11.48 132.31,9.66 131.84,7.84 131.43,6.27 131.02,4.70 130.73,3.73 130.45,2.75 129.73,1.01 129.01,-0.73 128.74,-1.95 128.47,-3.17 127.78,-4.89 127.09,-6.60 126.88,-7.71 126.68,-8.82 126.19,-10.21 125.69,-11.59 125.23,-12.82 124.76,-14.05 124.36,-15.02 123.95,-15.99 123.79,-16.76 123.62,-17.53 123.09,-18.78 122.57,-20.04 122.08,-21.51 121.60,-22.98 121.13,-23.91 120.66,-24.85 120.28,-26.31 119.91,-27.77 119.81,-28.38 119.71,-28.98 119.31,-29.92 118.91,-30.86 118.77,-31.53 118.63,-32.20 118.14,-33.26 117.65,-34.31 117.22,-35.46 116.79,-36.62 116.62,-37.60 116.45,-38.58 116.13,-39.45 115.82,-40.32 115.26,-40.62 114.70,-40.92 114.29,-41.71 113.88,-42.50 113.09,-43.27 112.31,-44.03 111.38,-44.52 110.44,-45.01 109.92,-45.48 109.40,-45.95 108.91,-45.73 108.41,-45.51 108.14,-44.63 107.88,-43.75 107.33,-42.39 106.77,-41.03 106.14,-39.14 105.51,-37.24 104.70,-34.85 103.90,-32.46 103.33,-30.12 102.76,-27.79 102.11,-25.72 101.46,-23.65 100.63,-21.57 99.80,-19.49 99.15,-17.19 98.51,-14.89 97.72,-12.99 96.92,-11.08 96.37,-9.21 95.82,-7.34 95.19,-5.69 94.57,-4.04 93.78,-2.20 93.00,-0.36 91.85,1.82 90.70,4.02 89.98,5.87 89.26,7.73 88.87,8.75 88.48,9.77 87.56,11.43 86.65,13.08 85.95,14.04 85.25,14.99 84.22,16.48 83.18,17.97 82.62,18.97 82.06,19.98 81.54,20.64 81.01,21.31 80.02,22.01 79.04,22.71 78.23,23.08 77.42,23.45 76.34,23.43 75.27,23.41 74.73,23.37 74.19,23.32 73.59,23.20 72.99,23.08 72.37,22.48 71.74,21.88 70.80,21.35 69.85,20.82 69.04,20.03 68.22,19.24 67.31,18.72 66.41,18.20 65.89,17.73 65.38,17.25 64.85,16.80 64.32,16.35 63.46,15.65 62.60,14.94 62.25,14.38 61.90,13.81 61.41,13.32 60.92,12.82 60.84,12.12 60.76,11.42 60.28,10.94 59.80,10.45 59.62,9.84 59.44,9.22 58.94,8.41 58.45,7.61 57.92,6.85 57.40,6.10 56.88,5.17 56.37,4.25 55.80,2.87 55.23,1.48 54.78,0.80 54.34,0.12 53.81,-0.81 53.28,-1.75 52.78,-2.21 52.29,-2.68 51.80,-3.15 51.30,-3.63 50.83,-4.09 50.37,-4.55 50.09,-5.07 49.82,-5.59 49.34,-5.12 48.85,-4.64 48.05,-4.45 47.25,-4.25 46.75,-3.77 46.24,-3.30 45.20,-2.59 44.16,-1.89 43.54,-1.29 42.92,-0.69 42.40,-0.15 41.89,0.38 41.64,0.99 41.40,1.61 40.70,2.48 40.01,3.34 39.75,4.09 39.49,4.84 38.98,5.77 38.46,6.70 37.80,7.43 37.14,8.16 36.44,8.77 35.74,9.39 35.24,9.77 34.75,10.15 33.93,10.23 33.11,10.31 32.51,10.21 31.90,10.11 30.91,9.56 29.92,9.00 29.30,8.36 28.68,7.72 27.88,7.02 27.07,6.31 26.11,5.89 25.16,5.47 24.23,4.96 23.31,4.45 22.59,3.80 21.87,3.16 21.25,2.51 20.64,1.87 20.05,1.19 19.46,0.51 18.96,-0.09 18.47,-0.70 18.37,-1.25 18.28,-1.80 17.94,-2.48 17.59,-3.16 16.92,-3.94 16.24,-4.72 15.75,-5.18 15.27,-5.64 14.80,-6.10 14.32,-6.57 14.05,-7.15 13.78,-7.73 13.09,-7.59 12.40,-7.45 11.66,-7.56 10.93,-7.67 10.43,-7.12 9.94,-6.56 9.72,-5.92 9.51,-5.27 8.65,-4.46 7.79,-3.65 7.35,-3.20 6.91,-2.74 6.31,-2.70 5.71,-2.65 4.86,-2.02 4.00,-1.38 3.01,-0.81 2.01,-0.24 1.46,0.33 0.92,0.92 0.79,1.01 0.67,1.11 0.53,1.17 0.38,1.24 0.23,1.27 0.07,1.30 -0.07,1.29 -0.23,1.28 -0.38,1.23 -0.53,1.18 -0.66,1.10 -0.80,1.02 -0.91,0.91 -1.02,0.80 -1.10,0.67 -1.18,0.53 -1.23,0.38 -1.28,0.23 -1.29,0.07 -1.30,-0.07 -1.27,-0.23 -1.24,-0.38 -1.17,-0.52 -1.11,-0.67 -1.01,-0.79 -0.92,-0.92 -0.92,-0.92 L -0.92,-0.92 Z"/></g><g transform="translate(26.01171875 133.1484375) rotate(0 9.509765625 14.51171875)" stroke="none"><path fill="#1e1e1e" d="M 0,1.07 Q 0,1.07 -1.43,1.01 -2.87,0.96 -3.71,0.94 -4.55,0.91 -5.07,1.56 -5.59,2.20 -6.05,2.67 -6.50,3.13 -6.93,3.78 -7.36,4.43 -7.49,4.95 -7.63,5.46 -8.05,6.13 -8.47,6.79 -8.61,7.66 -8.75,8.53 -8.80,9.26 -8.85,9.98 -8.89,10.85 -8.93,11.71 -8.99,12.95 -9.05,14.18 -9.10,15.25 -9.15,16.33 -8.65,17.20 -8.15,18.07 -7.43,18.71 -6.70,19.36 -5.23,20.53 -3.76,21.70 -2.32,22.46 -0.88,23.22 1.43,24.12 3.76,25.02 6.76,25.98 9.75,26.94 11.58,27.35 13.41,27.75 15.67,28.51 17.93,29.28 19.70,29.59 21.46,29.89 22.58,30.34 23.70,30.78 24.66,30.94 25.62,31.09 26.33,31.11 27.03,31.13 27.44,30.51 27.84,29.90 27.65,28.30 27.45,26.71 27.11,25.45 26.77,24.20 26.08,22.53 25.38,20.86 24.50,18.68 23.63,16.50 22.68,13.83 21.73,11.16 20.76,8.30 19.79,5.44 19.10,3.67 18.40,1.89 17.84,0.88 17.28,-0.12 16.98,-0.86 16.68,-1.61 16.04,-1.73 15.41,-1.86 14.59,-1.85 13.77,-1.85 12.90,-1.41 12.03,-0.97 11.45,-0.89 10.87,-0.80 10.33,-0.76 9.80,-0.72 9.01,-0.73 8.23,-0.75 7.16,-0.33 6.10,0.08 5.50,0.16 4.90,0.24 3.16,0.30 1.41,0.36 1.19,0.32 0.97,0.29 0.77,0.19 0.58,0.09 0.42,-0.06 0.27,-0.22 0.17,-0.42 0.07,-0.62 0.05,-0.84 0.02,-1.06 0.06,-1.28 0.11,-1.49 0.22,-1.69 0.33,-1.88 0.50,-2.02 0.66,-2.17 0.87,-2.25 1.07,-2.34 1.30,-2.36 1.52,-2.37 1.73,-2.31 1.95,-2.26 2.13,-2.14 2.32,-2.01 2.45,-1.84 2.59,-1.67 2.67,-1.46 2.74,-1.25 2.74,-1.03 2.75,-0.80 2.68,-0.59 2.61,-0.38 2.48,-0.20 2.35,-0.02 2.17,0.09 1.98,0.22 1.77,0.28 1.56,0.35 1.34,0.34 1.11,0.33 0.91,0.25 0.70,0.17 0.53,0.03 0.36,-0.10 0.24,-0.29 0.12,-0.48 0.07,-0.69 0.02,-0.91 0.04,-1.13 0.06,-1.35 0.15,-1.55 0.24,-1.76 0.39,-1.92 0.54,-2.08 0.74,-2.19 0.93,-2.30 1.15,-2.34 1.37,-2.38 1.37,-2.38 1.37,-2.38 3.00,-2.39 4.64,-2.40 5.51,-2.50 6.39,-2.59 7.25,-2.93 8.11,-3.28 9.36,-3.31 10.62,-3.34 11.40,-3.40 12.17,-3.45 12.94,-3.76 13.70,-4.08 14.27,-4.03 14.84,-3.98 15.40,-3.86 15.95,-3.75 16.54,-3.50 17.12,-3.25 17.60,-2.74 18.08,-2.23 18.28,-1.51 18.48,-0.78 19.09,0.29 19.70,1.38 20.42,3.18 21.14,4.98 22.13,7.82 23.12,10.66 24.08,13.29 25.04,15.92 25.94,18.07 26.85,20.22 27.63,21.96 28.42,23.71 28.86,25.08 29.30,26.45 29.59,28.32 29.88,30.19 29.65,31.10 29.41,32.00 28.88,32.38 28.35,32.76 27.61,32.72 26.87,32.69 26.13,32.55 25.39,32.42 24.30,32.22 23.21,32.02 22.22,31.61 21.22,31.21 19.36,30.88 17.51,30.55 15.31,29.81 13.12,29.08 11.23,28.66 9.34,28.25 6.30,27.29 3.26,26.32 0.85,25.40 -1.54,24.48 -3.10,23.67 -4.66,22.86 -6.19,21.68 -7.72,20.50 -8.63,19.68 -9.54,18.87 -10.19,17.65 -10.84,16.43 -10.88,15.29 -10.92,14.16 -10.96,12.90 -10.99,11.65 -10.97,10.72 -10.96,9.79 -10.87,9.01 -10.79,8.23 -10.61,6.91 -10.43,5.58 -10.09,5.15 -9.76,4.72 -9.48,4.00 -9.20,3.28 -8.64,2.39 -8.09,1.50 -7.58,1.04 -7.08,0.57 -6.57,0.16 -6.06,-0.25 -5.42,-0.58 -4.79,-0.91 -3.83,-0.94 -2.87,-0.96 -1.43,-1.01 0,-1.07 0.12,-1.05 0.25,-1.04 0.37,-0.99 0.49,-0.95 0.60,-0.87 0.71,-0.80 0.79,-0.70 0.88,-0.60 0.94,-0.49 1.00,-0.38 1.03,-0.25 1.06,-0.12 1.06,0.00 1.06,0.12 1.03,0.25 1.00,0.38 0.94,0.49 0.88,0.60 0.79,0.70 0.71,0.80 0.60,0.87 0.49,0.95 0.37,0.99 0.25,1.04 0.12,1.05 -0.00,1.07 -0.00,1.07 L 0,1.07 Z"/></g><g transform="translate(108.08203125 132.14453125) rotate(0 3.00390625 16.015625)" stroke="none"><path fill="#1e1e1e" d="M 0.99,0 Q 0.99,0 0.99,0.86 0.99,1.72 1.22,2.85 1.46,3.98 1.82,5.03 2.18,6.09 2.40,6.89 2.62,7.69 2.74,8.34 2.87,8.99 2.94,9.56 3.01,10.12 3.27,10.79 3.54,11.45 3.91,12.35 4.27,13.26 4.46,14.34 4.65,15.42 4.76,16.14 4.87,16.87 4.91,17.78 4.94,18.68 5.19,19.83 5.43,20.98 5.54,22.14 5.64,23.30 5.73,24.07 5.82,24.84 5.89,25.45 5.95,26.07 6.22,26.76 6.49,27.46 6.76,29.56 7.03,31.65 7.01,31.82 6.99,31.99 6.92,32.14 6.85,32.29 6.73,32.41 6.61,32.53 6.46,32.61 6.31,32.69 6.14,32.71 5.98,32.74 5.81,32.71 5.64,32.68 5.50,32.60 5.35,32.52 5.23,32.40 5.12,32.27 5.05,32.12 4.98,31.96 4.96,31.80 4.95,31.63 4.98,31.46 5.02,31.30 5.11,31.15 5.20,31.01 5.33,30.90 5.46,30.79 5.62,30.73 5.78,30.67 5.94,30.67 6.11,30.66 6.28,30.71 6.44,30.75 6.58,30.85 6.72,30.94 6.82,31.08 6.92,31.22 6.97,31.38 7.02,31.54 7.02,31.71 7.02,31.88 6.96,32.04 6.91,32.19 6.80,32.33 6.70,32.46 6.56,32.55 6.42,32.65 6.25,32.69 6.09,32.73 5.92,32.72 5.75,32.71 5.60,32.65 5.44,32.58 5.31,32.47 5.18,32.36 5.10,32.22 5.01,32.07 4.98,31.91 4.94,31.74 4.94,31.74 4.95,31.74 4.79,29.93 4.64,28.12 4.31,27.14 3.98,26.17 4.00,25.57 4.02,24.97 4.00,24.23 3.98,23.49 3.83,22.45 3.68,21.41 3.32,20.09 2.96,18.76 2.93,17.92 2.90,17.08 2.86,16.42 2.82,15.75 2.66,14.90 2.50,14.05 2.03,13.11 1.57,12.18 1.24,10.70 0.91,9.23 0.89,8.66 0.86,8.09 0.73,7.38 0.61,6.67 0.15,5.53 -0.30,4.39 -0.65,3.06 -0.99,1.73 -0.99,0.86 -0.99,0 -0.98,-0.11 -0.96,-0.23 -0.92,-0.35 -0.88,-0.46 -0.81,-0.56 -0.74,-0.66 -0.65,-0.74 -0.56,-0.82 -0.46,-0.87 -0.35,-0.93 -0.23,-0.96 -0.12,-0.99 0.00,-0.99 0.12,-0.99 0.23,-0.96 0.35,-0.93 0.46,-0.87 0.56,-0.82 0.65,-0.74 0.74,-0.66 0.81,-0.56 0.88,-0.46 0.92,-0.35 0.96,-0.23 0.98,-0.11 0.99,0.00 0.99,0.00 L 0.99,0 Z"/></g><g transform="translate(203.16796875 132.14453125) rotate(0 -5.005859375 14.513671875)" stroke="none"><path fill="#1e1e1e" d="M 0,1.03 Q 0,1.03 -1.14,0.98 -2.29,0.93 -3.25,1.17 -4.20,1.40 -5.59,1.51 -6.98,1.62 -8.35,1.93 -9.72,2.24 -10.54,2.65 -11.35,3.05 -12.07,3.31 -12.78,3.56 -13.27,4.20 -13.75,4.84 -14.16,5.41 -14.58,5.97 -14.64,6.70 -14.71,7.44 -14.70,8.37 -14.70,9.30 -14.78,10.36 -14.87,11.42 -14.93,12.45 -14.98,13.49 -15.03,14.79 -15.08,16.09 -15.07,16.93 -15.06,17.77 -15.03,18.42 -14.99,19.06 -14.99,19.89 -15.00,20.72 -14.55,21.82 -14.10,22.92 -13.65,23.84 -13.19,24.75 -12.50,25.11 -11.80,25.48 -11.14,25.91 -10.47,26.34 -9.99,26.95 -9.51,27.55 -8.56,27.58 -7.62,27.61 -6.10,27.71 -4.58,27.81 -3.84,27.81 -3.09,27.81 -2.49,27.80 -1.89,27.78 -1.06,27.80 -0.22,27.82 0.38,27.82 0.99,27.81 1.70,27.25 2.41,26.68 2.48,26.08 2.55,25.48 2.68,24.87 2.80,24.26 3.23,23.79 3.65,23.31 3.58,22.48 3.50,21.65 3.58,20.30 3.67,18.94 4.05,18.30 4.44,17.66 4.48,16.71 4.53,15.76 4.64,14.70 4.75,13.63 4.77,12.87 4.78,12.12 4.78,11.54 4.77,10.97 4.35,10.02 3.92,9.07 3.50,8.17 3.09,7.27 2.48,6.67 1.86,6.07 1.17,3.72 0.49,1.38 0.52,1.13 0.54,0.88 0.65,0.66 0.75,0.44 0.92,0.26 1.09,0.08 1.31,-0.02 1.53,-0.14 1.77,-0.18 2.02,-0.22 2.26,-0.18 2.50,-0.13 2.72,-0.02 2.94,0.09 3.11,0.27 3.27,0.45 3.38,0.67 3.48,0.90 3.51,1.14 3.53,1.39 3.48,1.63 3.42,1.87 3.30,2.08 3.17,2.29 2.98,2.45 2.79,2.61 2.56,2.70 2.33,2.79 2.09,2.80 1.84,2.81 1.60,2.75 1.37,2.68 1.16,2.54 0.96,2.40 0.81,2.20 0.66,2.01 0.58,1.77 0.51,1.54 0.51,1.29 0.51,1.05 0.59,0.81 0.67,0.58 0.82,0.38 0.97,0.19 1.17,0.05 1.38,-0.08 1.61,-0.14 1.85,-0.21 2.10,-0.19 2.34,-0.18 2.57,-0.09 2.80,0.00 2.99,0.16 3.18,0.32 3.30,0.53 3.43,0.74 3.48,0.98 3.53,1.22 3.53,1.22 3.53,1.22 3.45,2.19 3.37,3.16 3.83,3.60 4.29,4.05 4.29,4.59 4.30,5.14 4.82,5.74 5.34,6.33 5.77,6.81 6.20,7.29 6.37,8.27 6.54,9.24 6.88,10.05 7.21,10.85 7.20,11.50 7.19,12.15 7.18,12.91 7.18,13.68 7.25,14.84 7.32,16.01 7.26,16.66 7.19,17.31 6.76,18.35 6.32,19.40 6.37,20.60 6.43,21.79 6.39,22.32 6.36,22.85 6.26,23.44 6.16,24.03 5.66,25.01 5.16,25.99 5.00,26.62 4.84,27.26 4.43,27.91 4.03,28.57 3.39,29.06 2.74,29.55 1.92,29.89 1.11,30.23 0.44,30.22 -0.23,30.22 -1.06,30.24 -1.89,30.26 -2.50,30.24 -3.10,30.22 -3.85,30.22 -4.59,30.22 -6.21,30.27 -7.82,30.33 -8.38,30.27 -8.94,30.21 -9.56,30.05 -10.18,29.90 -10.98,29.13 -11.79,28.37 -12.99,27.57 -14.19,26.77 -14.84,25.81 -15.49,24.86 -15.95,23.67 -16.41,22.48 -16.72,21.64 -17.02,20.79 -17.03,19.93 -17.03,19.06 -16.99,18.42 -16.96,17.77 -16.95,16.93 -16.93,16.09 -16.98,14.78 -17.03,13.48 -17.08,12.45 -17.13,11.41 -17.18,9.80 -17.22,8.19 -17.16,7.65 -17.10,7.10 -16.98,6.51 -16.86,5.91 -16.57,5.27 -16.29,4.63 -15.92,4.24 -15.55,3.85 -15.13,3.28 -14.71,2.70 -13.99,2.30 -13.26,1.90 -12.64,1.78 -12.02,1.67 -11.05,1.21 -10.09,0.75 -8.61,0.38 -7.13,0.01 -5.89,-0.11 -4.65,-0.25 -3.48,-0.59 -2.31,-0.93 -1.15,-0.98 0,-1.03 0.12,-1.02 0.24,-1.00 0.36,-0.96 0.48,-0.92 0.58,-0.84 0.68,-0.77 0.77,-0.68 0.85,-0.59 0.91,-0.47 0.97,-0.36 1.00,-0.24 1.03,-0.12 1.03,0.00 1.03,0.12 1.00,0.24 0.97,0.36 0.91,0.47 0.85,0.59 0.77,0.68 0.68,0.77 0.58,0.84 0.48,0.92 0.36,0.96 0.24,1.00 0.12,1.02 -0.00,1.03 -0.00,1.03 L 0,1.03 Z"/></g><g transform="translate(296.25 135.1484375) rotate(0 1.5 26.0234375)" stroke="none"><path fill="#1e1e1e" d="M 0,1.22 Q 0,1.22 -0.86,1.20 -1.72,1.17 -2.92,1.10 -4.12,1.02 -5.04,1.48 -5.95,1.93 -6.32,2.48 -6.69,3.03 -7.21,3.39 -7.73,3.74 -8.72,4.40 -9.72,5.06 -10.15,5.59 -10.57,6.11 -11.12,6.47 -11.67,6.82 -12.02,7.53 -12.37,8.24 -12.79,8.89 -13.21,9.54 -13.74,10.21 -14.28,10.88 -15.16,12.43 -16.05,13.98 -16.29,14.63 -16.53,15.29 -16.99,16.21 -17.45,17.12 -17.57,17.71 -17.70,18.29 -17.81,19.34 -17.93,20.38 -18.00,21.43 -18.08,22.47 -18.06,23.21 -18.04,23.94 -18.01,24.54 -17.98,25.13 -17.76,26.13 -17.53,27.14 -17.38,27.93 -17.23,28.72 -16.92,29.17 -16.61,29.62 -16.19,31.15 -15.76,32.67 -15.34,33.82 -14.91,34.97 -14.45,35.69 -14.00,36.41 -13.52,37.34 -13.04,38.27 -11.27,39.55 -9.51,40.84 -8.40,41.56 -7.29,42.29 -5.37,43.47 -3.46,44.66 -0.97,45.72 1.52,46.78 4.03,47.82 6.54,48.86 8.20,49.60 9.85,50.33 11.13,50.94 12.41,51.54 13.20,51.74 14.00,51.94 14.60,51.99 15.20,52.03 16.07,52.08 16.93,52.13 16.84,51.34 16.75,50.55 17.11,49.82 17.48,49.10 17.92,47.90 18.36,46.71 18.51,45.95 18.65,45.19 19.08,44.14 19.50,43.10 19.66,42.22 19.82,41.33 20.23,40.27 20.64,39.20 20.79,38.29 20.94,37.37 20.97,36.68 20.99,36.00 21.05,34.58 21.11,33.16 21.15,31.97 21.19,30.78 21.16,29.98 21.14,29.19 21.10,28.56 21.05,27.94 21.10,26.81 21.14,25.68 21.17,24.34 21.20,23.00 21.22,20.70 21.24,18.40 21.26,16.28 21.27,14.15 21.00,12.15 20.73,10.14 20.61,8.97 20.50,7.80 20.15,7.13 19.80,6.46 19.62,5.85 19.45,5.23 18.92,4.67 18.39,4.12 17.47,4.19 16.56,4.26 15.82,3.90 15.08,3.53 14.17,3.37 13.26,3.21 12.79,2.77 12.31,2.33 11.13,2.00 9.94,1.67 9.07,1.49 8.20,1.31 7.71,0.86 7.23,0.40 6.43,0.48 5.63,0.55 4.67,0.54 3.72,0.53 2.72,0.53 1.73,0.53 0.02,0.54 -1.68,0.55 -1.93,0.51 -2.18,0.47 -2.40,0.35 -2.63,0.23 -2.80,0.05 -2.97,-0.12 -3.08,-0.35 -3.18,-0.58 -3.21,-0.83 -3.24,-1.08 -3.18,-1.33 -3.13,-1.57 -3.00,-1.79 -2.87,-2.00 -2.68,-2.17 -2.49,-2.33 -2.25,-2.42 -2.02,-2.51 -1.77,-2.53 -1.52,-2.54 -1.27,-2.47 -1.03,-2.41 -0.82,-2.27 -0.61,-2.12 -0.46,-1.92 -0.31,-1.72 -0.23,-1.48 -0.15,-1.25 -0.15,-0.99 -0.15,-0.74 -0.23,-0.50 -0.31,-0.27 -0.46,-0.07 -0.61,0.12 -0.82,0.27 -1.03,0.41 -1.27,0.47 -1.52,0.54 -1.77,0.53 -2.02,0.51 -2.25,0.42 -2.49,0.33 -2.68,0.16 -2.87,0.00 -3.00,-0.20 -3.13,-0.42 -3.18,-0.67 -3.24,-0.91 -3.21,-1.16 -3.18,-1.41 -3.08,-1.64 -2.97,-1.87 -2.80,-2.05 -2.63,-2.23 -2.40,-2.35 -2.18,-2.47 -1.93,-2.51 -1.68,-2.55 -1.68,-2.55 -1.68,-2.55 0.02,-2.54 1.74,-2.53 2.74,-2.52 3.74,-2.52 4.76,-2.50 5.78,-2.48 6.32,-2.45 6.85,-2.42 7.45,-2.32 8.05,-2.22 9.08,-1.71 10.10,-1.20 11.00,-0.76 11.91,-0.31 12.46,-0.22 13.02,-0.13 14.04,0.39 15.06,0.92 15.72,1.14 16.38,1.35 17.11,1.64 17.85,1.93 18.43,2.08 19.01,2.23 19.59,2.96 20.16,3.68 20.58,4.14 21.00,4.60 21.11,5.22 21.22,5.85 21.55,6.74 21.89,7.63 22.02,8.79 22.15,9.94 22.45,12.05 22.76,14.15 22.77,16.28 22.79,18.40 22.81,20.70 22.83,23.00 22.86,24.34 22.89,25.68 22.93,26.82 22.97,27.95 22.92,28.57 22.88,29.20 22.84,30.00 22.80,30.79 22.82,31.99 22.83,33.19 22.84,34.67 22.85,36.16 22.75,36.90 22.65,37.63 22.50,38.71 22.34,39.80 22.05,40.72 21.76,41.63 21.62,42.72 21.48,43.81 21.21,44.69 20.94,45.57 20.79,46.62 20.64,47.68 20.36,48.39 20.08,49.10 19.86,49.76 19.64,50.41 19.33,51.16 19.02,51.91 18.79,52.51 18.57,53.11 18.05,53.50 17.54,53.89 16.82,53.91 16.10,53.93 15.51,53.83 14.92,53.73 14.24,53.56 13.56,53.39 12.70,53.09 11.83,52.78 10.56,52.19 9.29,51.60 7.65,50.89 6.01,50.17 3.48,49.15 0.95,48.12 -1.64,47.04 -4.24,45.95 -6.19,44.80 -8.13,43.64 -9.33,42.91 -10.53,42.19 -11.92,41.19 -13.31,40.18 -13.87,39.64 -14.44,39.10 -14.96,38.21 -15.47,37.32 -15.98,36.47 -16.50,35.61 -17.02,34.41 -17.54,33.21 -17.98,31.91 -18.41,30.61 -18.78,29.84 -19.15,29.07 -19.24,28.33 -19.33,27.60 -19.68,26.36 -20.03,25.13 -19.99,24.52 -19.95,23.91 -19.90,23.16 -19.86,22.42 -19.87,21.34 -19.88,20.26 -19.85,19.00 -19.82,17.75 -19.59,17.00 -19.37,16.25 -19.02,15.38 -18.66,14.50 -18.34,13.65 -18.02,12.80 -17.48,11.77 -16.95,10.74 -16.64,10.03 -16.34,9.32 -15.93,8.77 -15.51,8.21 -14.78,7.04 -14.05,5.87 -13.39,5.23 -12.73,4.59 -12.34,4.00 -11.95,3.41 -10.79,3.01 -9.63,2.62 -9.16,2.15 -8.69,1.69 -8.33,1.12 -7.98,0.56 -6.87,0.08 -5.75,-0.39 -5.00,-0.70 -4.25,-1.02 -2.98,-1.10 -1.72,-1.17 -0.86,-1.20 0,-1.22 0.14,-1.20 0.29,-1.18 0.43,-1.13 0.56,-1.08 0.69,-1.00 0.81,-0.91 0.91,-0.80 1.00,-0.69 1.07,-0.56 1.14,-0.43 1.18,-0.29 1.21,-0.14 1.21,0.00 1.21,0.14 1.18,0.29 1.14,0.43 1.07,0.56 1.00,0.69 0.90,0.80 0.81,0.91 0.69,1.00 0.56,1.08 0.43,1.13 0.29,1.18 0.14,1.20 -0.00,1.22 -0.00,1.22 L 0,1.22 Z"/></g><g transform="translate(351.296875 141.15234375) rotate(0 1.001953125 22.521484375)" stroke="none"><path fill="#1e1e1e" d="M 0.90,0.30 Q 0.90,0.30 0.61,1.16 0.32,2.02 0.18,3.42 0.04,4.83 -0.03,6.32 -0.11,7.80 -0.12,8.73 -0.13,9.65 -0.14,10.62 -0.15,11.58 -0.16,12.57 -0.17,13.55 -0.13,14.26 -0.09,14.97 -0.05,15.55 -0.01,16.13 0.21,17.14 0.44,18.14 0.60,18.94 0.75,19.74 0.77,20.98 0.79,22.23 0.78,23.32 0.78,24.41 0.82,25.14 0.86,25.87 1.27,27.56 1.69,29.26 2.01,29.89 2.33,30.53 2.54,31.21 2.75,31.89 2.86,32.50 2.97,33.10 3.03,33.65 3.09,34.20 3.10,35.02 3.11,35.84 3.09,36.75 3.07,37.67 3.04,38.63 3.01,39.59 3.24,40.45 3.48,41.31 3.73,42.95 3.97,44.58 3.96,44.74 3.95,44.91 3.89,45.06 3.82,45.21 3.71,45.33 3.61,45.45 3.46,45.53 3.32,45.62 3.16,45.65 3.00,45.68 2.84,45.66 2.68,45.64 2.53,45.57 2.38,45.50 2.26,45.38 2.15,45.26 2.07,45.12 2.00,44.97 1.98,44.81 1.95,44.65 1.98,44.49 2.01,44.33 2.09,44.18 2.17,44.04 2.29,43.93 2.41,43.82 2.56,43.75 2.71,43.69 2.88,43.67 3.04,43.66 3.20,43.70 3.36,43.73 3.50,43.82 3.64,43.91 3.74,44.04 3.84,44.16 3.90,44.32 3.96,44.47 3.97,44.63 3.97,44.80 3.92,44.95 3.88,45.11 3.78,45.25 3.69,45.38 3.55,45.48 3.42,45.57 3.27,45.62 3.11,45.67 2.95,45.67 2.78,45.66 2.63,45.61 2.47,45.55 2.35,45.45 2.22,45.35 2.13,45.21 2.04,45.07 2.00,44.92 1.96,44.76 1.96,44.76 1.96,44.76 1.81,43.30 1.67,41.84 1.32,40.73 0.97,39.62 0.94,38.65 0.91,37.68 0.88,36.78 0.85,35.87 0.84,35.09 0.82,34.31 0.82,33.33 0.81,32.35 0.73,31.81 0.65,31.27 0.30,30.37 -0.05,29.48 -0.18,28.50 -0.30,27.53 -0.60,26.74 -0.89,25.96 -0.87,25.20 -0.84,24.44 -0.89,23.37 -0.94,22.30 -1.03,21.17 -1.11,20.04 -1.20,19.32 -1.29,18.59 -1.64,17.37 -1.98,16.15 -1.94,15.56 -1.89,14.96 -1.85,14.25 -1.81,13.55 -1.81,12.56 -1.81,11.57 -1.80,10.59 -1.79,9.61 -1.76,8.68 -1.73,7.75 -1.71,6.22 -1.68,4.69 -1.58,3.06 -1.47,1.43 -1.19,0.56 -0.90,-0.30 -0.85,-0.40 -0.80,-0.50 -0.73,-0.59 -0.66,-0.68 -0.57,-0.75 -0.47,-0.82 -0.37,-0.87 -0.26,-0.91 -0.15,-0.93 -0.03,-0.95 0.07,-0.94 0.19,-0.93 0.29,-0.89 0.40,-0.86 0.50,-0.80 0.60,-0.74 0.68,-0.65 0.76,-0.57 0.82,-0.47 0.87,-0.37 0.91,-0.26 0.94,-0.15 0.94,-0.03 0.95,0.07 0.92,0.18 0.90,0.30 0.90,0.30 L 0.90,0.30 Z"/></g><g transform="translate(425.36328125 144.15625) rotate(0 2 21.01953125)" stroke="none"><path fill="#1e1e1e" d="M 1.12,-0.16 Q 1.12,-0.16 1.34,1.86 1.57,3.88 1.93,5.87 2.28,7.86 2.43,9.02 2.57,10.18 2.92,10.84 3.26,11.49 3.48,12.18 3.71,12.86 3.82,13.47 3.94,14.07 4.00,14.63 4.07,15.18 4.14,16.22 4.21,17.25 4.20,18.05 4.20,18.84 4.17,19.75 4.13,20.67 4.15,21.34 4.16,22.02 4.18,22.59 4.21,23.17 4.19,23.99 4.18,24.81 4.15,25.73 4.11,26.65 4.13,27.33 4.14,28.02 4.17,28.59 4.19,29.17 4.21,29.70 4.23,30.23 4.22,31.04 4.21,31.84 4.22,32.47 4.23,33.10 4.25,33.65 4.27,34.21 4.30,35.24 4.33,36.27 4.36,37.28 4.38,38.29 4.77,39.67 5.15,41.05 5.19,41.28 5.24,41.50 5.21,41.73 5.17,41.96 5.07,42.17 4.97,42.37 4.80,42.53 4.64,42.70 4.43,42.80 4.23,42.90 4.00,42.93 3.77,42.96 3.55,42.92 3.32,42.87 3.12,42.76 2.92,42.64 2.77,42.47 2.61,42.30 2.52,42.09 2.43,41.88 2.41,41.65 2.40,41.42 2.45,41.20 2.51,40.97 2.63,40.78 2.76,40.59 2.94,40.44 3.12,40.30 3.33,40.22 3.55,40.14 3.78,40.13 4.01,40.13 4.23,40.20 4.45,40.27 4.64,40.40 4.82,40.54 4.96,40.72 5.09,40.91 5.16,41.13 5.22,41.35 5.22,41.58 5.21,41.81 5.13,42.03 5.05,42.24 4.91,42.42 4.76,42.60 4.57,42.72 4.37,42.85 4.15,42.90 3.93,42.96 3.70,42.94 3.47,42.92 3.26,42.83 3.04,42.73 2.87,42.58 2.70,42.43 2.59,42.23 2.48,42.03 2.48,42.03 2.48,42.03 2.04,40.16 1.61,38.29 1.63,37.28 1.66,36.27 1.69,35.24 1.72,34.21 1.74,33.65 1.76,33.10 1.77,32.47 1.78,31.84 1.77,31.04 1.76,30.23 1.78,29.70 1.80,29.17 1.82,28.59 1.85,28.02 1.86,27.33 1.88,26.65 1.84,25.73 1.81,24.81 1.80,23.99 1.78,23.17 1.80,22.59 1.83,22.02 1.84,21.34 1.85,20.67 1.82,19.76 1.79,18.85 1.77,18.06 1.76,17.28 1.80,16.29 1.84,15.30 1.84,14.31 1.83,13.33 1.74,12.78 1.66,12.24 1.28,11.35 0.91,10.46 0.70,9.34 0.49,8.22 0.03,6.19 -0.42,4.17 -0.77,2.16 -1.12,0.16 -1.12,0.02 -1.12,-0.11 -1.09,-0.24 -1.06,-0.37 -1.00,-0.50 -0.94,-0.62 -0.85,-0.72 -0.76,-0.83 -0.65,-0.91 -0.54,-0.99 -0.42,-1.04 -0.29,-1.09 -0.15,-1.11 -0.02,-1.13 0.11,-1.11 0.24,-1.10 0.37,-1.05 0.50,-1.01 0.61,-0.93 0.73,-0.86 0.82,-0.76 0.91,-0.66 0.98,-0.54 1.05,-0.42 1.08,-0.29 1.12,-0.15 1.12,-0.16 L 1.12,-0.16 Z"/></g><g transform="translate(490.41796875 147.16015625) rotate(0 -18.060546875 14.15625)" stroke="none"><path fill="#1e1e1e" d="M -0.12,0.84 Q -0.12,0.84 -4.04,0.25 -7.97,-0.33 -10.46,-0.58 -12.95,-0.84 -14.84,-0.95 -16.74,-1.07 -18.10,-1.12 -19.47,-1.17 -20.33,-1.16 -21.19,-1.14 -21.81,-1.11 -22.43,-1.07 -23.95,-0.30 -25.46,0.46 -27.30,1.36 -29.15,2.26 -31.27,3.99 -33.40,5.73 -34.88,7.03 -36.36,8.33 -37.22,9.66 -38.08,10.99 -38.43,11.83 -38.77,12.66 -38.87,13.27 -38.96,13.88 -38.96,14.88 -38.95,15.89 -38.96,16.65 -38.96,17.41 -38.93,18.02 -38.91,18.63 -38.88,19.16 -38.86,19.70 -38.52,20.48 -38.19,21.25 -37.21,22.28 -36.23,23.31 -35.51,23.93 -34.80,24.54 -33.95,25.12 -33.10,25.69 -31.62,26.51 -30.15,27.34 -29.28,27.66 -28.41,27.99 -27.44,28.44 -26.47,28.90 -25.59,29.05 -24.71,29.21 -23.51,29.30 -22.31,29.39 -20.15,29.15 -18.00,28.92 -15.96,28.55 -13.92,28.18 -11.97,27.48 -10.02,26.77 -8.86,26.46 -7.71,26.15 -6.92,25.96 -6.14,25.78 -5.51,25.66 -4.88,25.55 -4.32,25.48 -3.76,25.41 -3.14,24.65 -2.52,23.89 -2.04,23.24 -1.56,22.59 -1.10,21.86 -0.65,21.14 -0.14,20.27 0.36,19.41 0.88,18.49 1.40,17.58 1.55,16.96 1.69,16.35 1.72,15.35 1.76,14.36 1.72,13.39 1.69,12.42 1.65,11.45 1.61,10.48 1.58,9.50 1.55,8.53 2.22,6.20 2.89,3.88 3.09,3.78 3.30,3.67 3.52,3.64 3.74,3.61 3.97,3.65 4.19,3.68 4.39,3.79 4.59,3.90 4.74,4.07 4.89,4.23 4.99,4.44 5.08,4.65 5.10,4.87 5.12,5.10 5.07,5.32 5.02,5.54 4.90,5.73 4.78,5.92 4.60,6.07 4.43,6.21 4.22,6.29 4.01,6.37 3.78,6.38 3.55,6.39 3.34,6.33 3.12,6.27 2.93,6.14 2.75,6.01 2.61,5.82 2.48,5.64 2.41,5.43 2.34,5.21 2.34,4.99 2.35,4.76 2.42,4.55 2.50,4.33 2.64,4.15 2.78,3.98 2.97,3.85 3.15,3.73 3.37,3.67 3.59,3.61 3.82,3.63 4.04,3.64 4.25,3.73 4.46,3.82 4.63,3.96 4.80,4.11 4.92,4.31 5.03,4.50 5.08,4.73 5.12,4.95 5.10,5.17 5.07,5.40 4.97,5.60 4.87,5.81 4.71,5.97 4.56,6.13 4.56,6.13 4.56,6.13 4.43,7.33 4.30,8.53 4.27,9.50 4.23,10.48 4.19,11.47 4.14,12.46 4.06,13.49 3.98,14.52 3.91,15.08 3.83,15.64 3.69,16.27 3.55,16.90 3.28,17.65 3.02,18.40 2.57,19.37 2.12,20.35 1.67,21.29 1.22,22.23 0.74,23.11 0.26,23.99 -0.13,24.49 -0.53,24.98 -0.95,25.73 -1.37,26.48 -1.87,26.88 -2.37,27.27 -3.54,27.30 -4.71,27.32 -5.29,27.32 -5.87,27.32 -6.61,27.40 -7.34,27.47 -8.45,27.78 -9.55,28.08 -11.60,28.83 -13.65,29.58 -15.74,29.98 -17.83,30.38 -20.11,30.64 -22.39,30.91 -23.70,30.84 -25.00,30.78 -26.06,30.57 -27.11,30.37 -28.05,29.97 -28.99,29.57 -29.97,29.22 -30.95,28.86 -32.51,28.08 -34.07,27.30 -35.07,26.75 -36.08,26.19 -37.08,25.48 -38.08,24.76 -38.64,24.08 -39.20,23.39 -39.75,22.72 -40.31,22.04 -40.68,21.57 -41.05,21.09 -41.12,20.39 -41.18,19.69 -41.15,19.15 -41.12,18.61 -41.09,17.99 -41.05,17.37 -41.03,16.57 -41.00,15.77 -40.93,15.22 -40.85,14.67 -40.72,14.07 -40.59,13.47 -40.36,12.77 -40.12,12.07 -39.69,11.15 -39.26,10.23 -38.29,8.75 -37.33,7.27 -35.83,5.92 -34.34,4.58 -32.09,2.73 -29.85,0.88 -28.02,-0.05 -26.19,-0.99 -24.35,-1.90 -22.50,-2.81 -21.83,-2.75 -21.16,-2.70 -20.29,-2.65 -19.42,-2.60 -18.04,-2.56 -16.66,-2.53 -14.73,-2.44 -12.81,-2.35 -10.27,-2.13 -7.74,-1.91 -3.81,-1.38 0.12,-0.84 0.22,-0.81 0.31,-0.79 0.40,-0.74 0.49,-0.69 0.57,-0.62 0.65,-0.55 0.70,-0.46 0.76,-0.38 0.79,-0.28 0.83,-0.18 0.84,-0.08 0.85,0.01 0.83,0.11 0.82,0.22 0.78,0.31 0.74,0.41 0.68,0.49 0.62,0.57 0.54,0.64 0.47,0.71 0.37,0.75 0.28,0.80 0.18,0.82 0.08,0.84 -0.01,0.84 -0.12,0.84 -0.12,0.84 L -0.12,0.84 Z"/></g></svg>